M48
; DRILL file {KiCad (7.0.0)} date Sun May 21 11:31:46 2023
; FORMAT={3:3/ absolute / metric / suppress leading zeros}
; #@! TF.CreationDate,2023-05-21T11:31:46-07:00
; #@! TF.GenerationSoftware,Kicad,Pcbnew,(7.0.0)
; #@! TF.FileFunction,MixedPlating,1,2
FMAT,2
METRIC,TZ
; #@! TA.AperFunction,Plated,PTH,ViaDrill
T1C0.250
; #@! TA.AperFunction,Plated,PTH,ComponentDrill
T2C0.330
; #@! TA.AperFunction,Plated,PTH,ViaDrill
T3C0.400
; #@! TA.AperFunction,Plated,PTH,ComponentDrill
T4C0.700
; #@! TA.AperFunction,Plated,PTH,ComponentDrill
T5C0.800
; #@! TA.AperFunction,Plated,PTH,ComponentDrill
T6C1.000
; #@! TA.AperFunction,Plated,PTH,ComponentDrill
T7C1.500
; #@! TA.AperFunction,Plated,PTH,ComponentDrill
T8C3.200
%
G90
G05
T1
X128500Y-95700
X130100Y-90700
T2
X130700Y-95150
X130700Y-96450
X132000Y-95150
X132000Y-96450
X133300Y-95150
X133300Y-96450
T3
X122900Y-105300
X123300Y-85300
X132635Y-100950
X134300Y-90540
X135730Y-91900
X137300Y-84700
X138500Y-106900
T4
X138400Y-98985
X138400Y-104065
T5
X123885Y-97780
X125885Y-97780
T6
X119100Y-87900
X119100Y-90440
X141960Y-87900
X141960Y-90440
T7
X128100Y-79800
X128100Y-111600
X133100Y-79800
X133100Y-111600
T8
X120600Y-79200
X120600Y-112200
X140600Y-79200
X140600Y-112200
T0
M30
