%TF.GenerationSoftware,KiCad,Pcbnew,(7.0.0)*%
%TF.CreationDate,2023-05-21T11:31:51-07:00*%
%TF.ProjectId,DRV8870-breakout-board,44525638-3837-4302-9d62-7265616b6f75,rev?*%
%TF.SameCoordinates,Original*%
%TF.FileFunction,Copper,L2,Bot*%
%TF.FilePolarity,Positive*%
%FSLAX46Y46*%
G04 Gerber Fmt 4.6, Leading zero omitted, Abs format (unit mm)*
G04 Created by KiCad (PCBNEW (7.0.0)) date 2023-05-21 11:31:51*
%MOMM*%
%LPD*%
G01*
G04 APERTURE LIST*
%TA.AperFunction,ComponentPad*%
%ADD10C,5.600000*%
%TD*%
%TA.AperFunction,ComponentPad*%
%ADD11R,3.000000X3.000000*%
%TD*%
%TA.AperFunction,ComponentPad*%
%ADD12C,3.000000*%
%TD*%
%TA.AperFunction,ComponentPad*%
%ADD13R,1.600000X1.600000*%
%TD*%
%TA.AperFunction,ComponentPad*%
%ADD14C,1.600000*%
%TD*%
%TA.AperFunction,ComponentPad*%
%ADD15R,1.700000X1.700000*%
%TD*%
%TA.AperFunction,ComponentPad*%
%ADD16O,1.700000X1.700000*%
%TD*%
%TA.AperFunction,ComponentPad*%
%ADD17C,1.400000*%
%TD*%
%TA.AperFunction,ComponentPad*%
%ADD18O,1.400000X1.400000*%
%TD*%
%TA.AperFunction,ComponentPad*%
%ADD19C,0.630000*%
%TD*%
%TA.AperFunction,SMDPad,CuDef*%
%ADD20R,3.300000X2.600000*%
%TD*%
%TA.AperFunction,ViaPad*%
%ADD21C,0.800000*%
%TD*%
%TA.AperFunction,ViaPad*%
%ADD22C,0.600000*%
%TD*%
%TA.AperFunction,Conductor*%
%ADD23C,0.600000*%
%TD*%
G04 APERTURE END LIST*
D10*
%TO.P,H104,1,1*%
%TO.N,GND*%
X140600000Y-112200000D03*
%TD*%
D11*
%TO.P,J103,1,Pin_1*%
%TO.N,GND*%
X128099999Y-79799999D03*
D12*
%TO.P,J103,2,Pin_2*%
%TO.N,VMOTORS*%
X133100000Y-79800000D03*
%TD*%
D13*
%TO.P,C101,1*%
%TO.N,VMOTORS*%
X125885112Y-97779999D03*
D14*
%TO.P,C101,2*%
%TO.N,GND*%
X123885113Y-97780000D03*
%TD*%
D15*
%TO.P,J104,1,Pin_1*%
%TO.N,+3V3*%
X119099999Y-87899999D03*
D16*
%TO.P,J104,2,Pin_2*%
%TO.N,GND*%
X119099999Y-90439999D03*
%TD*%
D17*
%TO.P,R105,1*%
%TO.N,Net-(U102-ISEN)*%
X138400000Y-104065000D03*
D18*
%TO.P,R105,2*%
%TO.N,GND*%
X138399999Y-98984999D03*
%TD*%
D10*
%TO.P,H103,1,1*%
%TO.N,GND*%
X120600000Y-112200000D03*
%TD*%
D15*
%TO.P,J102,1,Pin_1*%
%TO.N,IN1*%
X141959999Y-87899999D03*
D16*
%TO.P,J102,2,Pin_2*%
%TO.N,IN2*%
X141959999Y-90439999D03*
%TD*%
D10*
%TO.P,H102,1,1*%
%TO.N,GND*%
X140600000Y-79200000D03*
%TD*%
D11*
%TO.P,J101,1,Pin_1*%
%TO.N,OUT2*%
X133099999Y-111599999D03*
D12*
%TO.P,J101,2,Pin_2*%
%TO.N,OUT1*%
X128100000Y-111600000D03*
%TD*%
D10*
%TO.P,H101,1,1*%
%TO.N,GND*%
X120600000Y-79200000D03*
%TD*%
D19*
%TO.P,U102,9,GND*%
%TO.N,GND*%
X133300000Y-95150000D03*
X132000000Y-95150000D03*
X130700000Y-95150000D03*
D20*
X131999999Y-95799999D03*
D19*
X133300000Y-96450000D03*
X132000000Y-96450000D03*
X130700000Y-96450000D03*
%TD*%
D21*
%TO.N,Net-(U102-ISEN)*%
X132635000Y-100950000D03*
D22*
%TO.N,GND*%
X128500000Y-95700000D03*
D21*
X135730000Y-91900000D03*
X137300000Y-84700000D03*
X138500000Y-106900000D03*
X123300000Y-85300000D03*
X122900000Y-105300000D03*
X134300000Y-90540000D03*
D22*
%TO.N,+3V3*%
X130100000Y-90700000D03*
%TD*%
D23*
%TO.N,Net-(U102-ISEN)*%
X132635000Y-100950000D02*
X135750000Y-104065000D01*
X135750000Y-104065000D02*
X138400000Y-104065000D01*
%TO.N,+3V3*%
X127300000Y-87900000D02*
X130100000Y-90700000D01*
X119100000Y-87900000D02*
X127300000Y-87900000D01*
%TD*%
%TA.AperFunction,Conductor*%
%TO.N,GND*%
G36*
X140603032Y-75700649D02*
G01*
X140607384Y-75700862D01*
X140752450Y-75707989D01*
X140943670Y-75718010D01*
X140955324Y-75719177D01*
X141121254Y-75743791D01*
X141122225Y-75743940D01*
X141294897Y-75771289D01*
X141305570Y-75773465D01*
X141471374Y-75814997D01*
X141473014Y-75815422D01*
X141638880Y-75859866D01*
X141648544Y-75862884D01*
X141736363Y-75894307D01*
X141810526Y-75920843D01*
X141813188Y-75921830D01*
X141846726Y-75934704D01*
X141972097Y-75982829D01*
X141980623Y-75986475D01*
X142136869Y-76060374D01*
X142140055Y-76061939D01*
X142282487Y-76134511D01*
X142291094Y-76138897D01*
X142298547Y-76143023D01*
X142331730Y-76162912D01*
X142447075Y-76232047D01*
X142450824Y-76234387D01*
X142592670Y-76326503D01*
X142598977Y-76330884D01*
X142738210Y-76434147D01*
X142742365Y-76437367D01*
X142873635Y-76543667D01*
X142878872Y-76548155D01*
X143007389Y-76664636D01*
X143011797Y-76668833D01*
X143131165Y-76788201D01*
X143135362Y-76792609D01*
X143251843Y-76921126D01*
X143256331Y-76926363D01*
X143362620Y-77057619D01*
X143365851Y-77061788D01*
X143469114Y-77201021D01*
X143473512Y-77207353D01*
X143565599Y-77349155D01*
X143567963Y-77352942D01*
X143656975Y-77501451D01*
X143661101Y-77508904D01*
X143738037Y-77659898D01*
X143739647Y-77663176D01*
X143811807Y-77815746D01*
X143813510Y-77819345D01*
X143817179Y-77827925D01*
X143878168Y-77986810D01*
X143879155Y-77989472D01*
X143937111Y-78151447D01*
X143940135Y-78161128D01*
X143984535Y-78326827D01*
X143985044Y-78328792D01*
X144026526Y-78494398D01*
X144028715Y-78505130D01*
X144056041Y-78677665D01*
X144056226Y-78678867D01*
X144080818Y-78844649D01*
X144081990Y-78856355D01*
X144091989Y-79047157D01*
X144091886Y-79047162D01*
X144092011Y-79047561D01*
X144099351Y-79196967D01*
X144099500Y-79203052D01*
X144099500Y-112196948D01*
X144099351Y-112203033D01*
X144092014Y-112352369D01*
X144091993Y-112352774D01*
X144081990Y-112543644D01*
X144080818Y-112555349D01*
X144056226Y-112721131D01*
X144056041Y-112722333D01*
X144028715Y-112894868D01*
X144026526Y-112905600D01*
X143985044Y-113071206D01*
X143984535Y-113073171D01*
X143940135Y-113238870D01*
X143937111Y-113248551D01*
X143879155Y-113410526D01*
X143878168Y-113413188D01*
X143817179Y-113572073D01*
X143813510Y-113580653D01*
X143739647Y-113736822D01*
X143738037Y-113740100D01*
X143661101Y-113891094D01*
X143656975Y-113898547D01*
X143567963Y-114047056D01*
X143565599Y-114050843D01*
X143473512Y-114192645D01*
X143469114Y-114198977D01*
X143365851Y-114338210D01*
X143362620Y-114342379D01*
X143256331Y-114473635D01*
X143251843Y-114478872D01*
X143135362Y-114607389D01*
X143131165Y-114611797D01*
X143011797Y-114731165D01*
X143007389Y-114735362D01*
X142878872Y-114851843D01*
X142873635Y-114856331D01*
X142742379Y-114962620D01*
X142738210Y-114965851D01*
X142598977Y-115069114D01*
X142592645Y-115073512D01*
X142450843Y-115165599D01*
X142447056Y-115167963D01*
X142298547Y-115256975D01*
X142291094Y-115261101D01*
X142140100Y-115338037D01*
X142136822Y-115339647D01*
X141980653Y-115413510D01*
X141972073Y-115417179D01*
X141813188Y-115478168D01*
X141810526Y-115479155D01*
X141648551Y-115537111D01*
X141638870Y-115540135D01*
X141473171Y-115584535D01*
X141471206Y-115585044D01*
X141305600Y-115626526D01*
X141294868Y-115628715D01*
X141122333Y-115656041D01*
X141121131Y-115656226D01*
X140955349Y-115680818D01*
X140943644Y-115681990D01*
X140752774Y-115691993D01*
X140752369Y-115692014D01*
X140603033Y-115699351D01*
X140596948Y-115699500D01*
X120603052Y-115699500D01*
X120596967Y-115699351D01*
X120447629Y-115692014D01*
X120447224Y-115691993D01*
X120256354Y-115681990D01*
X120244649Y-115680818D01*
X120078867Y-115656226D01*
X120077665Y-115656041D01*
X119905130Y-115628715D01*
X119894398Y-115626526D01*
X119728792Y-115585044D01*
X119726827Y-115584535D01*
X119561128Y-115540135D01*
X119551447Y-115537111D01*
X119389472Y-115479155D01*
X119386810Y-115478168D01*
X119227925Y-115417179D01*
X119219351Y-115413512D01*
X119063176Y-115339647D01*
X119059898Y-115338037D01*
X118908904Y-115261101D01*
X118901451Y-115256975D01*
X118752942Y-115167963D01*
X118749155Y-115165599D01*
X118701996Y-115134973D01*
X118607343Y-115073505D01*
X118601021Y-115069114D01*
X118461788Y-114965851D01*
X118457619Y-114962620D01*
X118326363Y-114856331D01*
X118321126Y-114851843D01*
X118192609Y-114735362D01*
X118188201Y-114731165D01*
X118068833Y-114611797D01*
X118064636Y-114607389D01*
X117948155Y-114478872D01*
X117943667Y-114473635D01*
X117837378Y-114342379D01*
X117834147Y-114338210D01*
X117730884Y-114198977D01*
X117726503Y-114192670D01*
X117634387Y-114050824D01*
X117632035Y-114047056D01*
X117543023Y-113898547D01*
X117538897Y-113891094D01*
X117534511Y-113882487D01*
X117461939Y-113740055D01*
X117460374Y-113736869D01*
X117386475Y-113580623D01*
X117382829Y-113572097D01*
X117321830Y-113413188D01*
X117320843Y-113410526D01*
X117262887Y-113248551D01*
X117259863Y-113238870D01*
X117253401Y-113214753D01*
X117215422Y-113073014D01*
X117214997Y-113071374D01*
X117173465Y-112905570D01*
X117171289Y-112894897D01*
X117143940Y-112722225D01*
X117143791Y-112721254D01*
X117119177Y-112555324D01*
X117118010Y-112543670D01*
X117107985Y-112352369D01*
X117100647Y-112202994D01*
X117100499Y-112196988D01*
X117100473Y-111600000D01*
X126094390Y-111600000D01*
X126094706Y-111604418D01*
X126114487Y-111881005D01*
X126114488Y-111881014D01*
X126114804Y-111885428D01*
X126115744Y-111889753D01*
X126115746Y-111889761D01*
X126169111Y-112135075D01*
X126175631Y-112165046D01*
X126177175Y-112169185D01*
X126177176Y-112169189D01*
X126252809Y-112371969D01*
X126275633Y-112433161D01*
X126277753Y-112437043D01*
X126277756Y-112437050D01*
X126342353Y-112555349D01*
X126412774Y-112684315D01*
X126584261Y-112913395D01*
X126786605Y-113115739D01*
X127015685Y-113287226D01*
X127266839Y-113424367D01*
X127534954Y-113524369D01*
X127814572Y-113585196D01*
X128100000Y-113605610D01*
X128385428Y-113585196D01*
X128665046Y-113524369D01*
X128933161Y-113424367D01*
X129184315Y-113287226D01*
X129374871Y-113144578D01*
X131099500Y-113144578D01*
X131099501Y-113147872D01*
X131099853Y-113151150D01*
X131099854Y-113151161D01*
X131105079Y-113199768D01*
X131105080Y-113199773D01*
X131105909Y-113207483D01*
X131108619Y-113214749D01*
X131108620Y-113214753D01*
X131121226Y-113248551D01*
X131156204Y-113342331D01*
X131161518Y-113349430D01*
X131161519Y-113349431D01*
X131209247Y-113413188D01*
X131242454Y-113457546D01*
X131357669Y-113543796D01*
X131492517Y-113594091D01*
X131552127Y-113600500D01*
X134647872Y-113600499D01*
X134707483Y-113594091D01*
X134842331Y-113543796D01*
X134957546Y-113457546D01*
X135043796Y-113342331D01*
X135094091Y-113207483D01*
X135100500Y-113147873D01*
X135100499Y-110052128D01*
X135094091Y-109992517D01*
X135043796Y-109857669D01*
X134957546Y-109742454D01*
X134842331Y-109656204D01*
X134771965Y-109629959D01*
X134714752Y-109608620D01*
X134714750Y-109608619D01*
X134707483Y-109605909D01*
X134699770Y-109605079D01*
X134699767Y-109605079D01*
X134651180Y-109599855D01*
X134651169Y-109599854D01*
X134647873Y-109599500D01*
X134644550Y-109599500D01*
X131555439Y-109599500D01*
X131555420Y-109599500D01*
X131552128Y-109599501D01*
X131548850Y-109599853D01*
X131548838Y-109599854D01*
X131500231Y-109605079D01*
X131500225Y-109605080D01*
X131492517Y-109605909D01*
X131485252Y-109608618D01*
X131485246Y-109608620D01*
X131365980Y-109653104D01*
X131365978Y-109653104D01*
X131357669Y-109656204D01*
X131350572Y-109661516D01*
X131350568Y-109661519D01*
X131249550Y-109737141D01*
X131249546Y-109737144D01*
X131242454Y-109742454D01*
X131237144Y-109749546D01*
X131237141Y-109749550D01*
X131161519Y-109850568D01*
X131161516Y-109850572D01*
X131156204Y-109857669D01*
X131153104Y-109865978D01*
X131153104Y-109865980D01*
X131108620Y-109985247D01*
X131108619Y-109985250D01*
X131105909Y-109992517D01*
X131105079Y-110000227D01*
X131105079Y-110000232D01*
X131099855Y-110048819D01*
X131099854Y-110048831D01*
X131099500Y-110052127D01*
X131099500Y-110055448D01*
X131099500Y-110055449D01*
X131099500Y-113144560D01*
X131099500Y-113144578D01*
X129374871Y-113144578D01*
X129413395Y-113115739D01*
X129615739Y-112913395D01*
X129787226Y-112684315D01*
X129924367Y-112433161D01*
X130024369Y-112165046D01*
X130085196Y-111885428D01*
X130105610Y-111600000D01*
X130085196Y-111314572D01*
X130024369Y-111034954D01*
X129924367Y-110766839D01*
X129787226Y-110515685D01*
X129615739Y-110286605D01*
X129413395Y-110084261D01*
X129184315Y-109912774D01*
X129098619Y-109865980D01*
X128937050Y-109777756D01*
X128937043Y-109777753D01*
X128933161Y-109775633D01*
X128929017Y-109774087D01*
X128929012Y-109774085D01*
X128669189Y-109677176D01*
X128669185Y-109677175D01*
X128665046Y-109675631D01*
X128600174Y-109661519D01*
X128389761Y-109615746D01*
X128389753Y-109615744D01*
X128385428Y-109614804D01*
X128381014Y-109614488D01*
X128381005Y-109614487D01*
X128104418Y-109594706D01*
X128100000Y-109594390D01*
X128095582Y-109594706D01*
X127818994Y-109614487D01*
X127818983Y-109614488D01*
X127814572Y-109614804D01*
X127810248Y-109615744D01*
X127810238Y-109615746D01*
X127539279Y-109674690D01*
X127539276Y-109674690D01*
X127534954Y-109675631D01*
X127530818Y-109677173D01*
X127530810Y-109677176D01*
X127270987Y-109774085D01*
X127270976Y-109774089D01*
X127266839Y-109775633D01*
X127262961Y-109777750D01*
X127262949Y-109777756D01*
X127019579Y-109910647D01*
X127019571Y-109910651D01*
X127015685Y-109912774D01*
X127012135Y-109915431D01*
X127012131Y-109915434D01*
X126790156Y-110081602D01*
X126790149Y-110081607D01*
X126786605Y-110084261D01*
X126783474Y-110087391D01*
X126783467Y-110087398D01*
X126587398Y-110283467D01*
X126587391Y-110283474D01*
X126584261Y-110286605D01*
X126581607Y-110290149D01*
X126581602Y-110290156D01*
X126415434Y-110512131D01*
X126412774Y-110515685D01*
X126410651Y-110519571D01*
X126410647Y-110519579D01*
X126277756Y-110762949D01*
X126277750Y-110762961D01*
X126275633Y-110766839D01*
X126274089Y-110770976D01*
X126274085Y-110770987D01*
X126177176Y-111030810D01*
X126177173Y-111030818D01*
X126175631Y-111034954D01*
X126174690Y-111039276D01*
X126174690Y-111039279D01*
X126115746Y-111310238D01*
X126115744Y-111310248D01*
X126114804Y-111314572D01*
X126114488Y-111318983D01*
X126114487Y-111318994D01*
X126095272Y-111587654D01*
X126094390Y-111600000D01*
X117100473Y-111600000D01*
X117100013Y-100950000D01*
X131729540Y-100950000D01*
X131730219Y-100956460D01*
X131748646Y-101131795D01*
X131748647Y-101131803D01*
X131749326Y-101138256D01*
X131751331Y-101144428D01*
X131751333Y-101144435D01*
X131805813Y-101312105D01*
X131807821Y-101318284D01*
X131902467Y-101482216D01*
X132029129Y-101622888D01*
X132182270Y-101734151D01*
X132350190Y-101808914D01*
X132387434Y-101834512D01*
X135120184Y-104567262D01*
X135247738Y-104694816D01*
X135253633Y-104698520D01*
X135280143Y-104715177D01*
X135291484Y-104723223D01*
X135321413Y-104747091D01*
X135327688Y-104750113D01*
X135327690Y-104750114D01*
X135355895Y-104763697D01*
X135368064Y-104770422D01*
X135400478Y-104790789D01*
X135407047Y-104793087D01*
X135407048Y-104793088D01*
X135436606Y-104803431D01*
X135449443Y-104808747D01*
X135483939Y-104825360D01*
X135521266Y-104833879D01*
X135534613Y-104837725D01*
X135564170Y-104848068D01*
X135564175Y-104848069D01*
X135570745Y-104850368D01*
X135608778Y-104854653D01*
X135622484Y-104856981D01*
X135659806Y-104865500D01*
X135705046Y-104865500D01*
X135840194Y-104865500D01*
X137448108Y-104865500D01*
X137492902Y-104873873D01*
X137531645Y-104897862D01*
X137673438Y-105027124D01*
X137862599Y-105144247D01*
X138070060Y-105224618D01*
X138288757Y-105265500D01*
X138505514Y-105265500D01*
X138511243Y-105265500D01*
X138729940Y-105224618D01*
X138937401Y-105144247D01*
X139126562Y-105027124D01*
X139290981Y-104877236D01*
X139425058Y-104699689D01*
X139524229Y-104500528D01*
X139585115Y-104286536D01*
X139605643Y-104065000D01*
X139585115Y-103843464D01*
X139524229Y-103629472D01*
X139425058Y-103430311D01*
X139299844Y-103264500D01*
X139294438Y-103257341D01*
X139294434Y-103257337D01*
X139290981Y-103252764D01*
X139286744Y-103248901D01*
X139286740Y-103248897D01*
X139130796Y-103106736D01*
X139130797Y-103106736D01*
X139126562Y-103102876D01*
X139121692Y-103099861D01*
X139121690Y-103099859D01*
X138942275Y-102988771D01*
X138942276Y-102988771D01*
X138937401Y-102985753D01*
X138729940Y-102905382D01*
X138724302Y-102904328D01*
X138516872Y-102865552D01*
X138516869Y-102865551D01*
X138511243Y-102864500D01*
X138288757Y-102864500D01*
X138283131Y-102865551D01*
X138283127Y-102865552D01*
X138075697Y-102904328D01*
X138075694Y-102904328D01*
X138070060Y-102905382D01*
X138064717Y-102907451D01*
X138064713Y-102907453D01*
X137867941Y-102983683D01*
X137867936Y-102983685D01*
X137862599Y-102985753D01*
X137857727Y-102988769D01*
X137857724Y-102988771D01*
X137678309Y-103099859D01*
X137678301Y-103099864D01*
X137673438Y-103102876D01*
X137669207Y-103106732D01*
X137669203Y-103106736D01*
X137531646Y-103232137D01*
X137492902Y-103256127D01*
X137448108Y-103264500D01*
X136132940Y-103264500D01*
X136085487Y-103255061D01*
X136045259Y-103228181D01*
X133513736Y-100696658D01*
X133483486Y-100647294D01*
X133464187Y-100587896D01*
X133464186Y-100587894D01*
X133462179Y-100581716D01*
X133367533Y-100417784D01*
X133240871Y-100277112D01*
X133235613Y-100273292D01*
X133235611Y-100273290D01*
X133092988Y-100169669D01*
X133092987Y-100169668D01*
X133087730Y-100165849D01*
X133081792Y-100163205D01*
X132920745Y-100091501D01*
X132920740Y-100091499D01*
X132914803Y-100088856D01*
X132908444Y-100087504D01*
X132908440Y-100087503D01*
X132736008Y-100050852D01*
X132736005Y-100050851D01*
X132729646Y-100049500D01*
X132540354Y-100049500D01*
X132533995Y-100050851D01*
X132533991Y-100050852D01*
X132361559Y-100087503D01*
X132361552Y-100087505D01*
X132355197Y-100088856D01*
X132349262Y-100091498D01*
X132349254Y-100091501D01*
X132188207Y-100163205D01*
X132188202Y-100163207D01*
X132182270Y-100165849D01*
X132177016Y-100169665D01*
X132177011Y-100169669D01*
X132034388Y-100273290D01*
X132034381Y-100273295D01*
X132029129Y-100277112D01*
X132024784Y-100281937D01*
X132024779Y-100281942D01*
X131906813Y-100412956D01*
X131906808Y-100412962D01*
X131902467Y-100417784D01*
X131899222Y-100423404D01*
X131899218Y-100423410D01*
X131811069Y-100576089D01*
X131811066Y-100576094D01*
X131807821Y-100581716D01*
X131805815Y-100587888D01*
X131805813Y-100587894D01*
X131751333Y-100755564D01*
X131751331Y-100755573D01*
X131749326Y-100761744D01*
X131748648Y-100768194D01*
X131748646Y-100768204D01*
X131730962Y-100936464D01*
X131729540Y-100950000D01*
X117100013Y-100950000D01*
X117100000Y-100645053D01*
X117100000Y-99237580D01*
X137226920Y-99237580D01*
X137227440Y-99248835D01*
X137274672Y-99414840D01*
X137278792Y-99425474D01*
X137372813Y-99614295D01*
X137378820Y-99623997D01*
X137505932Y-99792320D01*
X137513630Y-99800764D01*
X137669505Y-99942862D01*
X137678609Y-99949738D01*
X137857950Y-100060781D01*
X137868163Y-100065867D01*
X138064855Y-100142066D01*
X138075831Y-100145188D01*
X138136570Y-100156542D01*
X138147598Y-100156160D01*
X138150000Y-100145393D01*
X138650000Y-100145393D01*
X138652401Y-100156160D01*
X138663429Y-100156542D01*
X138724168Y-100145188D01*
X138735144Y-100142066D01*
X138931836Y-100065867D01*
X138942049Y-100060781D01*
X139121390Y-99949738D01*
X139130494Y-99942862D01*
X139286369Y-99800764D01*
X139294067Y-99792320D01*
X139421179Y-99623997D01*
X139427186Y-99614295D01*
X139521207Y-99425474D01*
X139525327Y-99414840D01*
X139572559Y-99248835D01*
X139573079Y-99237580D01*
X139562110Y-99235000D01*
X138666326Y-99235000D01*
X138653450Y-99238450D01*
X138650000Y-99251326D01*
X138650000Y-100145393D01*
X138150000Y-100145393D01*
X138150000Y-99251326D01*
X138146549Y-99238450D01*
X138133674Y-99235000D01*
X137237890Y-99235000D01*
X137226920Y-99237580D01*
X117100000Y-99237580D01*
X117100000Y-98858703D01*
X123163330Y-98858703D01*
X123170763Y-98866814D01*
X123228190Y-98907025D01*
X123237540Y-98912423D01*
X123433881Y-99003979D01*
X123444015Y-99007667D01*
X123653275Y-99063739D01*
X123663906Y-99065613D01*
X123879718Y-99084494D01*
X123890508Y-99084494D01*
X124106319Y-99065613D01*
X124116950Y-99063739D01*
X124326210Y-99007667D01*
X124336344Y-99003979D01*
X124532693Y-98912420D01*
X124542028Y-98907030D01*
X124550363Y-98901194D01*
X124609374Y-98879358D01*
X124671506Y-98889297D01*
X124715714Y-98924442D01*
X124715981Y-98924176D01*
X124718311Y-98926506D01*
X124720759Y-98928452D01*
X124727567Y-98937546D01*
X124842782Y-99023796D01*
X124977630Y-99074091D01*
X125037240Y-99080500D01*
X126732985Y-99080499D01*
X126792596Y-99074091D01*
X126927444Y-99023796D01*
X127042659Y-98937546D01*
X127128909Y-98822331D01*
X127162444Y-98732419D01*
X137226920Y-98732419D01*
X137237890Y-98735000D01*
X138133674Y-98735000D01*
X138146549Y-98731549D01*
X138150000Y-98718674D01*
X138650000Y-98718674D01*
X138653450Y-98731549D01*
X138666326Y-98735000D01*
X139562110Y-98735000D01*
X139573079Y-98732419D01*
X139572559Y-98721164D01*
X139525327Y-98555159D01*
X139521207Y-98544525D01*
X139427186Y-98355704D01*
X139421179Y-98346002D01*
X139294067Y-98177679D01*
X139286369Y-98169235D01*
X139130494Y-98027137D01*
X139121390Y-98020261D01*
X138942049Y-97909218D01*
X138931836Y-97904132D01*
X138735144Y-97827933D01*
X138724168Y-97824811D01*
X138663429Y-97813457D01*
X138652401Y-97813839D01*
X138650000Y-97824607D01*
X138650000Y-98718674D01*
X138150000Y-98718674D01*
X138150000Y-97824607D01*
X138147598Y-97813839D01*
X138136570Y-97813457D01*
X138075831Y-97824811D01*
X138064855Y-97827933D01*
X137868163Y-97904132D01*
X137857950Y-97909218D01*
X137678609Y-98020261D01*
X137669505Y-98027137D01*
X137513630Y-98169235D01*
X137505932Y-98177679D01*
X137378820Y-98346002D01*
X137372813Y-98355704D01*
X137278792Y-98544525D01*
X137274672Y-98555159D01*
X137227440Y-98721164D01*
X137226920Y-98732419D01*
X127162444Y-98732419D01*
X127179204Y-98687483D01*
X127185613Y-98627873D01*
X127185612Y-96932128D01*
X127179204Y-96872517D01*
X127128909Y-96737669D01*
X127042659Y-96622454D01*
X127035560Y-96617140D01*
X126934544Y-96541519D01*
X126934543Y-96541518D01*
X126927444Y-96536204D01*
X126857078Y-96509959D01*
X126799865Y-96488620D01*
X126799863Y-96488619D01*
X126792596Y-96485909D01*
X126784883Y-96485079D01*
X126784880Y-96485079D01*
X126736293Y-96479855D01*
X126736282Y-96479854D01*
X126732986Y-96479500D01*
X126729663Y-96479500D01*
X125040552Y-96479500D01*
X125040533Y-96479500D01*
X125037241Y-96479501D01*
X125033963Y-96479853D01*
X125033951Y-96479854D01*
X124985344Y-96485079D01*
X124985338Y-96485080D01*
X124977630Y-96485909D01*
X124970365Y-96488618D01*
X124970359Y-96488620D01*
X124851093Y-96533104D01*
X124851091Y-96533104D01*
X124842782Y-96536204D01*
X124835685Y-96541516D01*
X124835681Y-96541519D01*
X124734664Y-96617140D01*
X124734659Y-96617144D01*
X124727567Y-96622454D01*
X124722254Y-96629550D01*
X124722254Y-96629551D01*
X124720755Y-96631554D01*
X124718302Y-96633503D01*
X124715984Y-96635822D01*
X124715719Y-96635557D01*
X124671502Y-96670705D01*
X124609374Y-96680642D01*
X124550367Y-96658809D01*
X124542032Y-96652972D01*
X124532685Y-96647576D01*
X124336344Y-96556020D01*
X124326210Y-96552332D01*
X124116950Y-96496260D01*
X124106319Y-96494386D01*
X123890508Y-96475506D01*
X123879718Y-96475506D01*
X123663906Y-96494386D01*
X123653275Y-96496260D01*
X123444015Y-96552332D01*
X123433881Y-96556020D01*
X123237538Y-96647577D01*
X123228194Y-96652971D01*
X123170764Y-96693183D01*
X123163330Y-96701296D01*
X123169241Y-96710574D01*
X123885113Y-97426447D01*
X124150985Y-97692319D01*
X124183079Y-97747906D01*
X124183079Y-97812094D01*
X124150985Y-97867681D01*
X123169241Y-98849424D01*
X123163330Y-98858703D01*
X117100000Y-98858703D01*
X117100000Y-97785395D01*
X122580619Y-97785395D01*
X122599499Y-98001206D01*
X122601373Y-98011837D01*
X122657445Y-98221097D01*
X122661133Y-98231231D01*
X122752689Y-98427572D01*
X122758087Y-98436922D01*
X122798297Y-98494348D01*
X122806408Y-98501781D01*
X122815687Y-98495870D01*
X123520016Y-97791542D01*
X123526680Y-97779999D01*
X123520016Y-97768457D01*
X122815687Y-97064128D01*
X122806409Y-97058217D01*
X122798296Y-97065651D01*
X122758084Y-97123081D01*
X122752690Y-97132425D01*
X122661133Y-97328768D01*
X122657445Y-97338902D01*
X122601373Y-97548162D01*
X122599499Y-97558793D01*
X122580619Y-97774605D01*
X122580619Y-97785395D01*
X117100000Y-97785395D01*
X117100000Y-90692551D01*
X117772688Y-90692551D01*
X117773056Y-90703780D01*
X117825168Y-90898263D01*
X117828856Y-90908397D01*
X117924113Y-91112676D01*
X117929501Y-91122008D01*
X118058784Y-91306643D01*
X118065721Y-91314909D01*
X118225090Y-91474278D01*
X118233356Y-91481215D01*
X118417991Y-91610498D01*
X118427323Y-91615886D01*
X118631602Y-91711143D01*
X118641736Y-91714831D01*
X118836219Y-91766943D01*
X118847448Y-91767311D01*
X118850000Y-91756369D01*
X119350000Y-91756369D01*
X119352551Y-91767311D01*
X119363780Y-91766943D01*
X119558263Y-91714831D01*
X119568397Y-91711143D01*
X119772676Y-91615886D01*
X119782008Y-91610498D01*
X119966643Y-91481215D01*
X119974909Y-91474278D01*
X120134278Y-91314909D01*
X120141215Y-91306643D01*
X120270498Y-91122008D01*
X120275886Y-91112676D01*
X120371143Y-90908397D01*
X120374831Y-90898263D01*
X120426943Y-90703780D01*
X120427311Y-90692551D01*
X120416369Y-90690000D01*
X119366326Y-90690000D01*
X119353450Y-90693450D01*
X119350000Y-90706326D01*
X119350000Y-91756369D01*
X118850000Y-91756369D01*
X118850000Y-90706326D01*
X118846549Y-90693450D01*
X118833674Y-90690000D01*
X117783631Y-90690000D01*
X117772688Y-90692551D01*
X117100000Y-90692551D01*
X117100000Y-88794578D01*
X117749500Y-88794578D01*
X117749501Y-88797872D01*
X117749853Y-88801150D01*
X117749854Y-88801161D01*
X117755079Y-88849768D01*
X117755080Y-88849773D01*
X117755909Y-88857483D01*
X117758619Y-88864749D01*
X117758620Y-88864753D01*
X117792217Y-88954831D01*
X117806204Y-88992331D01*
X117892454Y-89107546D01*
X118007669Y-89193796D01*
X118139598Y-89243002D01*
X118189977Y-89277981D01*
X118217431Y-89332825D01*
X118215242Y-89394118D01*
X118183947Y-89446865D01*
X118065714Y-89565098D01*
X118058784Y-89573357D01*
X117929508Y-89757982D01*
X117924110Y-89767332D01*
X117828856Y-89971602D01*
X117825168Y-89981736D01*
X117773056Y-90176219D01*
X117772688Y-90187448D01*
X117783631Y-90190000D01*
X120416369Y-90190000D01*
X120427311Y-90187448D01*
X120426943Y-90176219D01*
X120374831Y-89981736D01*
X120371143Y-89971602D01*
X120275889Y-89767332D01*
X120270491Y-89757982D01*
X120141215Y-89573357D01*
X120134280Y-89565092D01*
X120016053Y-89446865D01*
X119984757Y-89394119D01*
X119982568Y-89332825D01*
X120010022Y-89277981D01*
X120060398Y-89243003D01*
X120192331Y-89193796D01*
X120307546Y-89107546D01*
X120393796Y-88992331D01*
X120444091Y-88857483D01*
X120449062Y-88811241D01*
X120469660Y-88754997D01*
X120514223Y-88714968D01*
X120572351Y-88700500D01*
X126917060Y-88700500D01*
X126964513Y-88709939D01*
X127004741Y-88736819D01*
X129470184Y-91202262D01*
X129597738Y-91329816D01*
X129603633Y-91333520D01*
X129630143Y-91350177D01*
X129641484Y-91358223D01*
X129671413Y-91382091D01*
X129677688Y-91385113D01*
X129677690Y-91385114D01*
X129705895Y-91398697D01*
X129718064Y-91405422D01*
X129750478Y-91425789D01*
X129757047Y-91428087D01*
X129757048Y-91428088D01*
X129786606Y-91438431D01*
X129799443Y-91443747D01*
X129833939Y-91460360D01*
X129871266Y-91468879D01*
X129884613Y-91472725D01*
X129914170Y-91483068D01*
X129914175Y-91483069D01*
X129920745Y-91485368D01*
X129958778Y-91489653D01*
X129972484Y-91491981D01*
X130009806Y-91500500D01*
X130048086Y-91500500D01*
X130061968Y-91501279D01*
X130100000Y-91505565D01*
X130138031Y-91501279D01*
X130151914Y-91500500D01*
X130183233Y-91500500D01*
X130190194Y-91500500D01*
X130227523Y-91491979D01*
X130241197Y-91489655D01*
X130279255Y-91485368D01*
X130315403Y-91472718D01*
X130328726Y-91468881D01*
X130366061Y-91460360D01*
X130400546Y-91443752D01*
X130413398Y-91438429D01*
X130449522Y-91425789D01*
X130481939Y-91405418D01*
X130494086Y-91398705D01*
X130528587Y-91382091D01*
X130558519Y-91358219D01*
X130569844Y-91350184D01*
X130602262Y-91329816D01*
X130629330Y-91302746D01*
X130639687Y-91293489D01*
X130669620Y-91269620D01*
X130693489Y-91239687D01*
X130702748Y-91229329D01*
X130729816Y-91202262D01*
X130750184Y-91169844D01*
X130758219Y-91158519D01*
X130782091Y-91128587D01*
X130798705Y-91094086D01*
X130805418Y-91081939D01*
X130825789Y-91049522D01*
X130838429Y-91013397D01*
X130843752Y-91000547D01*
X130844249Y-90999513D01*
X130860360Y-90966061D01*
X130868881Y-90928726D01*
X130872718Y-90915403D01*
X130885368Y-90879255D01*
X130889655Y-90841197D01*
X130891979Y-90827523D01*
X130900500Y-90790194D01*
X130900500Y-90751914D01*
X130901280Y-90738031D01*
X130904785Y-90706923D01*
X130905565Y-90700000D01*
X130901279Y-90661968D01*
X130900500Y-90648086D01*
X130900500Y-90616768D01*
X130900500Y-90609806D01*
X130891981Y-90572484D01*
X130889653Y-90558777D01*
X130885368Y-90520745D01*
X130883069Y-90514175D01*
X130883068Y-90514170D01*
X130872725Y-90484613D01*
X130868879Y-90471266D01*
X130861743Y-90440000D01*
X140604341Y-90440000D01*
X140604813Y-90445395D01*
X140623155Y-90655046D01*
X140624937Y-90675408D01*
X140626336Y-90680630D01*
X140626337Y-90680634D01*
X140684694Y-90898430D01*
X140684697Y-90898438D01*
X140686097Y-90903663D01*
X140688385Y-90908570D01*
X140688386Y-90908572D01*
X140783678Y-91112927D01*
X140783681Y-91112933D01*
X140785965Y-91117830D01*
X140789064Y-91122257D01*
X140789066Y-91122259D01*
X140918399Y-91306966D01*
X140918402Y-91306970D01*
X140921505Y-91311401D01*
X141088599Y-91478495D01*
X141093031Y-91481598D01*
X141093033Y-91481600D01*
X141120025Y-91500500D01*
X141282170Y-91614035D01*
X141496337Y-91713903D01*
X141724592Y-91775063D01*
X141960000Y-91795659D01*
X142195408Y-91775063D01*
X142423663Y-91713903D01*
X142637830Y-91614035D01*
X142831401Y-91478495D01*
X142998495Y-91311401D01*
X143134035Y-91117830D01*
X143233903Y-90903663D01*
X143295063Y-90675408D01*
X143315659Y-90440000D01*
X143295063Y-90204592D01*
X143233903Y-89976337D01*
X143134035Y-89762171D01*
X142998495Y-89568599D01*
X142876569Y-89446673D01*
X142845273Y-89393927D01*
X142843084Y-89332634D01*
X142870537Y-89277789D01*
X142920916Y-89242810D01*
X143052331Y-89193796D01*
X143167546Y-89107546D01*
X143253796Y-88992331D01*
X143304091Y-88857483D01*
X143310500Y-88797873D01*
X143310499Y-87002128D01*
X143304091Y-86942517D01*
X143253796Y-86807669D01*
X143167546Y-86692454D01*
X143052331Y-86606204D01*
X142917483Y-86555909D01*
X142909770Y-86555079D01*
X142909767Y-86555079D01*
X142861180Y-86549855D01*
X142861169Y-86549854D01*
X142857873Y-86549500D01*
X142854550Y-86549500D01*
X141065439Y-86549500D01*
X141065420Y-86549500D01*
X141062128Y-86549501D01*
X141058850Y-86549853D01*
X141058838Y-86549854D01*
X141010231Y-86555079D01*
X141010225Y-86555080D01*
X141002517Y-86555909D01*
X140995252Y-86558618D01*
X140995246Y-86558620D01*
X140875980Y-86603104D01*
X140875978Y-86603104D01*
X140867669Y-86606204D01*
X140860572Y-86611516D01*
X140860568Y-86611519D01*
X140759550Y-86687141D01*
X140759546Y-86687144D01*
X140752454Y-86692454D01*
X140747144Y-86699546D01*
X140747141Y-86699550D01*
X140671519Y-86800568D01*
X140671516Y-86800572D01*
X140666204Y-86807669D01*
X140663104Y-86815978D01*
X140663104Y-86815980D01*
X140618620Y-86935247D01*
X140618619Y-86935250D01*
X140615909Y-86942517D01*
X140615079Y-86950227D01*
X140615079Y-86950232D01*
X140609855Y-86998819D01*
X140609854Y-86998831D01*
X140609500Y-87002127D01*
X140609500Y-87005448D01*
X140609500Y-87005449D01*
X140609500Y-88794560D01*
X140609500Y-88794578D01*
X140609501Y-88797872D01*
X140609853Y-88801150D01*
X140609854Y-88801161D01*
X140615079Y-88849768D01*
X140615080Y-88849773D01*
X140615909Y-88857483D01*
X140618619Y-88864749D01*
X140618620Y-88864753D01*
X140652217Y-88954831D01*
X140666204Y-88992331D01*
X140752454Y-89107546D01*
X140867669Y-89193796D01*
X140977405Y-89234725D01*
X140999082Y-89242810D01*
X141049462Y-89277789D01*
X141076915Y-89332633D01*
X141074726Y-89393926D01*
X141043430Y-89446673D01*
X140921505Y-89568599D01*
X140918402Y-89573029D01*
X140918399Y-89573034D01*
X140789073Y-89757731D01*
X140789068Y-89757738D01*
X140785965Y-89762171D01*
X140783677Y-89767077D01*
X140783675Y-89767081D01*
X140688386Y-89971427D01*
X140688383Y-89971432D01*
X140686097Y-89976337D01*
X140684698Y-89981557D01*
X140684694Y-89981569D01*
X140626337Y-90199365D01*
X140626335Y-90199371D01*
X140624937Y-90204592D01*
X140624465Y-90209977D01*
X140624465Y-90209982D01*
X140607888Y-90399456D01*
X140604341Y-90440000D01*
X130861743Y-90440000D01*
X130860360Y-90433939D01*
X130843747Y-90399443D01*
X130838431Y-90386606D01*
X130828088Y-90357048D01*
X130828087Y-90357047D01*
X130825789Y-90350478D01*
X130805422Y-90318064D01*
X130798697Y-90305895D01*
X130785114Y-90277690D01*
X130785113Y-90277688D01*
X130782091Y-90271413D01*
X130758223Y-90241484D01*
X130750177Y-90230143D01*
X130733520Y-90203633D01*
X130729816Y-90197738D01*
X130602262Y-90070184D01*
X130602261Y-90070183D01*
X127834252Y-87302174D01*
X127834251Y-87302173D01*
X127802262Y-87270184D01*
X127769851Y-87249818D01*
X127758509Y-87241771D01*
X127728587Y-87217909D01*
X127722318Y-87214890D01*
X127722315Y-87214888D01*
X127694093Y-87201296D01*
X127681927Y-87194572D01*
X127655414Y-87177913D01*
X127655412Y-87177912D01*
X127649522Y-87174211D01*
X127613393Y-87161568D01*
X127600554Y-87156250D01*
X127572336Y-87142661D01*
X127572329Y-87142658D01*
X127566061Y-87139640D01*
X127559276Y-87138091D01*
X127559267Y-87138088D01*
X127528735Y-87131119D01*
X127515382Y-87127273D01*
X127479255Y-87114632D01*
X127472338Y-87113852D01*
X127472336Y-87113852D01*
X127441218Y-87110345D01*
X127427518Y-87108017D01*
X127396988Y-87101050D01*
X127396983Y-87101049D01*
X127390194Y-87099500D01*
X127383228Y-87099500D01*
X120572351Y-87099500D01*
X120514223Y-87085031D01*
X120469660Y-87045002D01*
X120449061Y-86988753D01*
X120444920Y-86950231D01*
X120444091Y-86942517D01*
X120393796Y-86807669D01*
X120307546Y-86692454D01*
X120192331Y-86606204D01*
X120057483Y-86555909D01*
X120049770Y-86555079D01*
X120049767Y-86555079D01*
X120001180Y-86549855D01*
X120001169Y-86549854D01*
X119997873Y-86549500D01*
X119994550Y-86549500D01*
X118205439Y-86549500D01*
X118205420Y-86549500D01*
X118202128Y-86549501D01*
X118198850Y-86549853D01*
X118198838Y-86549854D01*
X118150231Y-86555079D01*
X118150225Y-86555080D01*
X118142517Y-86555909D01*
X118135252Y-86558618D01*
X118135246Y-86558620D01*
X118015980Y-86603104D01*
X118015978Y-86603104D01*
X118007669Y-86606204D01*
X118000572Y-86611516D01*
X118000568Y-86611519D01*
X117899550Y-86687141D01*
X117899546Y-86687144D01*
X117892454Y-86692454D01*
X117887144Y-86699546D01*
X117887141Y-86699550D01*
X117811519Y-86800568D01*
X117811516Y-86800572D01*
X117806204Y-86807669D01*
X117803104Y-86815978D01*
X117803104Y-86815980D01*
X117758620Y-86935247D01*
X117758619Y-86935250D01*
X117755909Y-86942517D01*
X117755079Y-86950227D01*
X117755079Y-86950232D01*
X117749855Y-86998819D01*
X117749854Y-86998831D01*
X117749500Y-87002127D01*
X117749500Y-87005448D01*
X117749500Y-87005449D01*
X117749500Y-88794560D01*
X117749500Y-88794578D01*
X117100000Y-88794578D01*
X117100000Y-79800000D01*
X131094390Y-79800000D01*
X131094706Y-79804418D01*
X131114487Y-80081005D01*
X131114488Y-80081014D01*
X131114804Y-80085428D01*
X131115744Y-80089753D01*
X131115746Y-80089761D01*
X131169111Y-80335075D01*
X131175631Y-80365046D01*
X131275633Y-80633161D01*
X131277753Y-80637043D01*
X131277756Y-80637050D01*
X131410647Y-80880420D01*
X131412774Y-80884315D01*
X131584261Y-81113395D01*
X131786605Y-81315739D01*
X132015685Y-81487226D01*
X132266839Y-81624367D01*
X132534954Y-81724369D01*
X132814572Y-81785196D01*
X133100000Y-81805610D01*
X133385428Y-81785196D01*
X133665046Y-81724369D01*
X133933161Y-81624367D01*
X134184315Y-81487226D01*
X134413395Y-81315739D01*
X134615739Y-81113395D01*
X134787226Y-80884315D01*
X134924367Y-80633161D01*
X135024369Y-80365046D01*
X135085196Y-80085428D01*
X135105610Y-79800000D01*
X135085196Y-79514572D01*
X135024369Y-79234954D01*
X134924367Y-78966839D01*
X134787226Y-78715685D01*
X134615739Y-78486605D01*
X134413395Y-78284261D01*
X134184315Y-78112774D01*
X134013122Y-78019295D01*
X133937050Y-77977756D01*
X133937043Y-77977753D01*
X133933161Y-77975633D01*
X133929017Y-77974087D01*
X133929012Y-77974085D01*
X133669189Y-77877176D01*
X133669185Y-77877175D01*
X133665046Y-77875631D01*
X133635075Y-77869111D01*
X133389761Y-77815746D01*
X133389753Y-77815744D01*
X133385428Y-77814804D01*
X133381014Y-77814488D01*
X133381005Y-77814487D01*
X133113172Y-77795332D01*
X133100000Y-77794390D01*
X133087654Y-77795272D01*
X132818994Y-77814487D01*
X132818983Y-77814488D01*
X132814572Y-77814804D01*
X132810248Y-77815744D01*
X132810238Y-77815746D01*
X132539279Y-77874690D01*
X132539276Y-77874690D01*
X132534954Y-77875631D01*
X132530818Y-77877173D01*
X132530810Y-77877176D01*
X132270987Y-77974085D01*
X132270976Y-77974089D01*
X132266839Y-77975633D01*
X132262961Y-77977750D01*
X132262949Y-77977756D01*
X132019579Y-78110647D01*
X132019571Y-78110651D01*
X132015685Y-78112774D01*
X132012135Y-78115431D01*
X132012131Y-78115434D01*
X131790156Y-78281602D01*
X131790149Y-78281607D01*
X131786605Y-78284261D01*
X131783474Y-78287391D01*
X131783467Y-78287398D01*
X131587398Y-78483467D01*
X131587391Y-78483474D01*
X131584261Y-78486605D01*
X131581607Y-78490149D01*
X131581602Y-78490156D01*
X131435183Y-78685750D01*
X131412774Y-78715685D01*
X131410651Y-78719571D01*
X131410647Y-78719579D01*
X131277756Y-78962949D01*
X131277750Y-78962961D01*
X131275633Y-78966839D01*
X131274089Y-78970976D01*
X131274085Y-78970987D01*
X131177176Y-79230810D01*
X131177173Y-79230818D01*
X131175631Y-79234954D01*
X131174690Y-79239276D01*
X131174690Y-79239279D01*
X131115746Y-79510238D01*
X131115744Y-79510248D01*
X131114804Y-79514572D01*
X131114488Y-79518983D01*
X131114487Y-79518994D01*
X131095272Y-79787654D01*
X131094390Y-79800000D01*
X117100000Y-79800000D01*
X117100000Y-79184543D01*
X117100155Y-79178348D01*
X117106539Y-79050715D01*
X117106560Y-79050303D01*
X117116909Y-78856355D01*
X117117260Y-78849782D01*
X117118472Y-78837890D01*
X117143707Y-78670856D01*
X117143817Y-78670151D01*
X117172532Y-78492146D01*
X117174788Y-78481292D01*
X117217524Y-78313856D01*
X117217939Y-78312281D01*
X117264392Y-78142163D01*
X117267498Y-78132406D01*
X117327262Y-77968611D01*
X117328236Y-77966035D01*
X117391838Y-77803592D01*
X117395617Y-77794932D01*
X117471777Y-77637196D01*
X117473390Y-77633979D01*
X117553543Y-77479947D01*
X117557770Y-77472475D01*
X117649559Y-77322689D01*
X117651936Y-77318965D01*
X117747762Y-77174736D01*
X117752233Y-77168447D01*
X117858699Y-77028322D01*
X117861975Y-77024200D01*
X117972416Y-76891216D01*
X117977004Y-76886000D01*
X118096949Y-76757171D01*
X118101229Y-76752797D01*
X118225173Y-76632344D01*
X118229601Y-76628250D01*
X118361905Y-76511944D01*
X118367170Y-76507574D01*
X118503352Y-76400899D01*
X118507466Y-76397819D01*
X118650586Y-76295389D01*
X118657035Y-76291076D01*
X118803941Y-76199408D01*
X118807681Y-76197169D01*
X118960078Y-76109665D01*
X118967662Y-76105657D01*
X119123933Y-76029930D01*
X119127106Y-76028450D01*
X119287016Y-75956798D01*
X119295792Y-75953263D01*
X119460040Y-75894307D01*
X119462527Y-75893447D01*
X119628007Y-75838371D01*
X119637885Y-75835534D01*
X119809063Y-75794007D01*
X119810945Y-75793567D01*
X119979391Y-75755663D01*
X119990345Y-75753711D01*
X120169193Y-75730079D01*
X120169693Y-75730015D01*
X120337485Y-75709549D01*
X120349376Y-75708678D01*
X120550061Y-75703711D01*
X120695660Y-75700592D01*
X120698680Y-75700528D01*
X120700354Y-75700510D01*
X120700485Y-75700514D01*
X120700485Y-75700509D01*
X120701334Y-75700500D01*
X140596949Y-75700500D01*
X140603032Y-75700649D01*
G37*
%TD.AperFunction*%
%TD*%
M02*
