%TF.GenerationSoftware,KiCad,Pcbnew,(7.0.0)*%
%TF.CreationDate,2023-05-21T11:31:51-07:00*%
%TF.ProjectId,DRV8870-breakout-board,44525638-3837-4302-9d62-7265616b6f75,rev?*%
%TF.SameCoordinates,Original*%
%TF.FileFunction,Copper,L1,Top*%
%TF.FilePolarity,Positive*%
%FSLAX46Y46*%
G04 Gerber Fmt 4.6, Leading zero omitted, Abs format (unit mm)*
G04 Created by KiCad (PCBNEW (7.0.0)) date 2023-05-21 11:31:51*
%MOMM*%
%LPD*%
G01*
G04 APERTURE LIST*
G04 Aperture macros list*
%AMRoundRect*
0 Rectangle with rounded corners*
0 $1 Rounding radius*
0 $2 $3 $4 $5 $6 $7 $8 $9 X,Y pos of 4 corners*
0 Add a 4 corners polygon primitive as box body*
4,1,4,$2,$3,$4,$5,$6,$7,$8,$9,$2,$3,0*
0 Add four circle primitives for the rounded corners*
1,1,$1+$1,$2,$3*
1,1,$1+$1,$4,$5*
1,1,$1+$1,$6,$7*
1,1,$1+$1,$8,$9*
0 Add four rect primitives between the rounded corners*
20,1,$1+$1,$2,$3,$4,$5,0*
20,1,$1+$1,$4,$5,$6,$7,0*
20,1,$1+$1,$6,$7,$8,$9,0*
20,1,$1+$1,$8,$9,$2,$3,0*%
G04 Aperture macros list end*
%TA.AperFunction,ComponentPad*%
%ADD10C,5.600000*%
%TD*%
%TA.AperFunction,ComponentPad*%
%ADD11R,3.000000X3.000000*%
%TD*%
%TA.AperFunction,ComponentPad*%
%ADD12C,3.000000*%
%TD*%
%TA.AperFunction,ComponentPad*%
%ADD13R,1.600000X1.600000*%
%TD*%
%TA.AperFunction,ComponentPad*%
%ADD14C,1.600000*%
%TD*%
%TA.AperFunction,ComponentPad*%
%ADD15R,1.700000X1.700000*%
%TD*%
%TA.AperFunction,ComponentPad*%
%ADD16O,1.700000X1.700000*%
%TD*%
%TA.AperFunction,SMDPad,CuDef*%
%ADD17RoundRect,0.200000X0.275000X-0.200000X0.275000X0.200000X-0.275000X0.200000X-0.275000X-0.200000X0*%
%TD*%
%TA.AperFunction,ComponentPad*%
%ADD18C,1.400000*%
%TD*%
%TA.AperFunction,ComponentPad*%
%ADD19O,1.400000X1.400000*%
%TD*%
%TA.AperFunction,SMDPad,CuDef*%
%ADD20R,0.500000X2.200000*%
%TD*%
%TA.AperFunction,ComponentPad*%
%ADD21C,0.630000*%
%TD*%
%TA.AperFunction,SMDPad,CuDef*%
%ADD22R,4.900000X2.950000*%
%TD*%
%TA.AperFunction,ViaPad*%
%ADD23C,0.800000*%
%TD*%
%TA.AperFunction,ViaPad*%
%ADD24C,0.600000*%
%TD*%
%TA.AperFunction,Conductor*%
%ADD25C,0.600000*%
%TD*%
%TA.AperFunction,Conductor*%
%ADD26C,0.400000*%
%TD*%
G04 APERTURE END LIST*
D10*
%TO.P,H104,1,1*%
%TO.N,GND*%
X140600000Y-112200000D03*
%TD*%
D11*
%TO.P,J103,1,Pin_1*%
%TO.N,GND*%
X128099999Y-79799999D03*
D12*
%TO.P,J103,2,Pin_2*%
%TO.N,VMOTORS*%
X133100000Y-79800000D03*
%TD*%
D13*
%TO.P,C101,1*%
%TO.N,VMOTORS*%
X125885112Y-97779999D03*
D14*
%TO.P,C101,2*%
%TO.N,GND*%
X123885113Y-97780000D03*
%TD*%
D15*
%TO.P,J104,1,Pin_1*%
%TO.N,+3V3*%
X119099999Y-87899999D03*
D16*
%TO.P,J104,2,Pin_2*%
%TO.N,GND*%
X119099999Y-90439999D03*
%TD*%
D17*
%TO.P,R104,1*%
%TO.N,Net-(U102-ISEN)*%
X138400000Y-102350000D03*
%TO.P,R104,2*%
%TO.N,GND*%
X138400000Y-100700000D03*
%TD*%
D18*
%TO.P,R105,1*%
%TO.N,Net-(U102-ISEN)*%
X138400000Y-104065000D03*
D19*
%TO.P,R105,2*%
%TO.N,GND*%
X138399999Y-98984999D03*
%TD*%
D10*
%TO.P,H103,1,1*%
%TO.N,GND*%
X120600000Y-112200000D03*
%TD*%
D15*
%TO.P,J102,1,Pin_1*%
%TO.N,IN1*%
X141959999Y-87899999D03*
D16*
%TO.P,J102,2,Pin_2*%
%TO.N,IN2*%
X141959999Y-90439999D03*
%TD*%
D10*
%TO.P,H102,1,1*%
%TO.N,GND*%
X140600000Y-79200000D03*
%TD*%
D11*
%TO.P,J101,1,Pin_1*%
%TO.N,OUT2*%
X133099999Y-111599999D03*
D12*
%TO.P,J101,2,Pin_2*%
%TO.N,OUT1*%
X128100000Y-111600000D03*
%TD*%
D10*
%TO.P,H101,1,1*%
%TO.N,GND*%
X120600000Y-79200000D03*
%TD*%
D20*
%TO.P,U102,1,GND*%
%TO.N,GND*%
X133904999Y-92924999D03*
%TO.P,U102,2,IN2*%
%TO.N,IN2*%
X132634999Y-92924999D03*
%TO.P,U102,3,IN1*%
%TO.N,IN1*%
X131364999Y-92924999D03*
%TO.P,U102,4,VREF*%
%TO.N,+3V3*%
X130094999Y-92924999D03*
%TO.P,U102,5,VM*%
%TO.N,VMOTORS*%
X130094999Y-98674999D03*
%TO.P,U102,6,OUT1*%
%TO.N,OUT1*%
X131364999Y-98674999D03*
%TO.P,U102,7,ISEN*%
%TO.N,Net-(U102-ISEN)*%
X132634999Y-98674999D03*
%TO.P,U102,8,OUT2*%
%TO.N,OUT2*%
X133904999Y-98674999D03*
D21*
%TO.P,U102,9,GND*%
%TO.N,GND*%
X133300000Y-95150000D03*
X132000000Y-95150000D03*
X130700000Y-95150000D03*
D22*
X131999999Y-95799999D03*
D21*
X133300000Y-96450000D03*
X132000000Y-96450000D03*
X130700000Y-96450000D03*
%TD*%
D23*
%TO.N,Net-(U102-ISEN)*%
X132635000Y-100950000D03*
D24*
%TO.N,GND*%
X128500000Y-95700000D03*
D23*
X135730000Y-91900000D03*
X137300000Y-84700000D03*
X138500000Y-106900000D03*
X123300000Y-85300000D03*
X122900000Y-105300000D03*
X134300000Y-90540000D03*
D24*
%TO.N,+3V3*%
X130100000Y-90700000D03*
%TD*%
D25*
%TO.N,VMOTORS*%
X125885113Y-90154887D02*
X125885113Y-97780000D01*
X133100000Y-79800000D02*
X133100000Y-82940000D01*
X130095000Y-98675000D02*
X126780113Y-98675000D01*
X126780113Y-98675000D02*
X125885113Y-97780000D01*
X133100000Y-82940000D02*
X125885113Y-90154887D01*
%TO.N,Net-(U102-ISEN)*%
X132635000Y-100950000D02*
X132635000Y-98675000D01*
X138400000Y-102350000D02*
X138400000Y-104065000D01*
%TO.N,GND*%
X138400000Y-100885051D02*
X138400000Y-100700000D01*
X138400000Y-100700000D02*
X138400000Y-98985000D01*
%TO.N,OUT1*%
X131365000Y-98675000D02*
X131365000Y-101615000D01*
D26*
X128100000Y-110325000D02*
X128100000Y-110700000D01*
D25*
X131365000Y-101615000D02*
X128100000Y-104880000D01*
X128100000Y-104880000D02*
X128100000Y-111600000D01*
D26*
%TO.N,OUT2*%
X133100000Y-110700000D02*
X133600000Y-110200000D01*
D25*
X133905000Y-98675000D02*
X133905000Y-110795000D01*
D26*
X133100000Y-111600000D02*
X133600000Y-111100000D01*
D25*
X133905000Y-110795000D02*
X133100000Y-111600000D01*
%TO.N,+3V3*%
X130100000Y-90700000D02*
X130100000Y-92920000D01*
X130100000Y-92920000D02*
X130095000Y-92925000D01*
%TO.N,IN2*%
X132635000Y-90255000D02*
X132635000Y-92925000D01*
X140690000Y-90440000D02*
X139350000Y-89100000D01*
X141960000Y-90440000D02*
X140690000Y-90440000D01*
X139350000Y-89100000D02*
X133790000Y-89100000D01*
X133790000Y-89100000D02*
X132635000Y-90255000D01*
%TO.N,IN1*%
X133040000Y-87900000D02*
X141960000Y-87900000D01*
X131365000Y-92925000D02*
X131365000Y-89575000D01*
X131365000Y-89575000D02*
X133040000Y-87900000D01*
%TD*%
%TA.AperFunction,Conductor*%
%TO.N,OUT2*%
G36*
X134160775Y-97610593D02*
G01*
X134202355Y-97640563D01*
X134228262Y-97684786D01*
X135093637Y-100280911D01*
X135100000Y-100320123D01*
X135100000Y-113376000D01*
X135083387Y-113438000D01*
X135038000Y-113483387D01*
X134976000Y-113500000D01*
X131023247Y-113500000D01*
X130961465Y-113483513D01*
X130916113Y-113438436D01*
X130899249Y-113376756D01*
X130882409Y-110615160D01*
X130850204Y-105333605D01*
X130866794Y-105270890D01*
X132336910Y-102722687D01*
X132371147Y-102684545D01*
X133650000Y-101750000D01*
X133650000Y-97724000D01*
X133666613Y-97662000D01*
X133712000Y-97616613D01*
X133774000Y-97600000D01*
X134110626Y-97600000D01*
X134160775Y-97610593D01*
G37*
%TD.AperFunction*%
%TD*%
%TA.AperFunction,Conductor*%
%TO.N,VMOTORS*%
G36*
X135238000Y-77716613D02*
G01*
X135283387Y-77762000D01*
X135300000Y-77824000D01*
X135300000Y-83045708D01*
X135289590Y-83095441D01*
X135260107Y-83136824D01*
X132701358Y-85498745D01*
X132701332Y-85498770D01*
X132700000Y-85500000D01*
X132698718Y-85501332D01*
X132698706Y-85501345D01*
X127708251Y-90691417D01*
X127708247Y-90691422D01*
X127700000Y-90700000D01*
X127700000Y-91900000D01*
X127700000Y-96800000D01*
X128500000Y-97700000D01*
X129900000Y-97700000D01*
X130176000Y-97700000D01*
X130238000Y-97716613D01*
X130283387Y-97762000D01*
X130300000Y-97824000D01*
X130300000Y-99676000D01*
X130283387Y-99738000D01*
X130238000Y-99783387D01*
X130176000Y-99800000D01*
X127331620Y-99800000D01*
X127272242Y-99784859D01*
X126406908Y-99312859D01*
X126360122Y-99268072D01*
X126342299Y-99205804D01*
X126358302Y-99143045D01*
X126403766Y-99096915D01*
X126466286Y-99080000D01*
X126729631Y-99080000D01*
X126736227Y-99079646D01*
X126784780Y-99074426D01*
X126799754Y-99070888D01*
X126918890Y-99026452D01*
X126934302Y-99018037D01*
X127035205Y-98942501D01*
X127047614Y-98930092D01*
X127123150Y-98829189D01*
X127131565Y-98813777D01*
X127176001Y-98694641D01*
X127179539Y-98679667D01*
X127184759Y-98631114D01*
X127185113Y-98624518D01*
X127185113Y-98046326D01*
X127181662Y-98033450D01*
X127168787Y-98030000D01*
X125759113Y-98030000D01*
X125697113Y-98013387D01*
X125651726Y-97968000D01*
X125635113Y-97906000D01*
X125635113Y-97513674D01*
X126135113Y-97513674D01*
X126138563Y-97526549D01*
X126151439Y-97530000D01*
X127168787Y-97530000D01*
X127181662Y-97526549D01*
X127185113Y-97513674D01*
X127185113Y-96935482D01*
X127184759Y-96928885D01*
X127179539Y-96880332D01*
X127176001Y-96865358D01*
X127131565Y-96746222D01*
X127123150Y-96730810D01*
X127047614Y-96629907D01*
X127035205Y-96617498D01*
X126934302Y-96541962D01*
X126918890Y-96533547D01*
X126799754Y-96489111D01*
X126784780Y-96485573D01*
X126736227Y-96480353D01*
X126729631Y-96480000D01*
X126151439Y-96480000D01*
X126138563Y-96483450D01*
X126135113Y-96496326D01*
X126135113Y-97513674D01*
X125635113Y-97513674D01*
X125635113Y-96496326D01*
X125631662Y-96483450D01*
X125618787Y-96480000D01*
X125224000Y-96480000D01*
X125162000Y-96463387D01*
X125116613Y-96418000D01*
X125100000Y-96356000D01*
X125100000Y-89350136D01*
X125109041Y-89303656D01*
X125134845Y-89263953D01*
X130891696Y-83308590D01*
X130900000Y-83300000D01*
X130900000Y-77824000D01*
X130916613Y-77762000D01*
X130962000Y-77716613D01*
X131024000Y-77700000D01*
X135176000Y-77700000D01*
X135238000Y-77716613D01*
G37*
%TD.AperFunction*%
%TD*%
%TA.AperFunction,Conductor*%
%TO.N,OUT1*%
G36*
X131638000Y-99016613D02*
G01*
X131683387Y-99062000D01*
X131700000Y-99124000D01*
X131700000Y-102064437D01*
X131681152Y-102130157D01*
X130209237Y-104485219D01*
X130209236Y-104485222D01*
X130200000Y-104500000D01*
X130200000Y-104517430D01*
X130200000Y-113376000D01*
X130183387Y-113438000D01*
X130138000Y-113483387D01*
X130076000Y-113500000D01*
X126324000Y-113500000D01*
X126262000Y-113483387D01*
X126216613Y-113438000D01*
X126200000Y-113376000D01*
X126200000Y-105346864D01*
X126208007Y-105303027D01*
X126230995Y-105264851D01*
X126890084Y-104517430D01*
X131050000Y-99800000D01*
X131050000Y-99124000D01*
X131066613Y-99062000D01*
X131112000Y-99016613D01*
X131174000Y-99000000D01*
X131576000Y-99000000D01*
X131638000Y-99016613D01*
G37*
%TD.AperFunction*%
%TD*%
%TA.AperFunction,Conductor*%
%TO.N,GND*%
G36*
X140603032Y-75700649D02*
G01*
X140607384Y-75700862D01*
X140752450Y-75707989D01*
X140943670Y-75718010D01*
X140955324Y-75719177D01*
X141121254Y-75743791D01*
X141122225Y-75743940D01*
X141294897Y-75771289D01*
X141305570Y-75773465D01*
X141471374Y-75814997D01*
X141473014Y-75815422D01*
X141638880Y-75859866D01*
X141648544Y-75862884D01*
X141736363Y-75894307D01*
X141810526Y-75920843D01*
X141813188Y-75921830D01*
X141846726Y-75934704D01*
X141972097Y-75982829D01*
X141980623Y-75986475D01*
X142136869Y-76060374D01*
X142140055Y-76061939D01*
X142282487Y-76134511D01*
X142291094Y-76138897D01*
X142298547Y-76143023D01*
X142331730Y-76162912D01*
X142447075Y-76232047D01*
X142450824Y-76234387D01*
X142592670Y-76326503D01*
X142598977Y-76330884D01*
X142738210Y-76434147D01*
X142742365Y-76437367D01*
X142873635Y-76543667D01*
X142878872Y-76548155D01*
X143007389Y-76664636D01*
X143011797Y-76668833D01*
X143131165Y-76788201D01*
X143135362Y-76792609D01*
X143251843Y-76921126D01*
X143256331Y-76926363D01*
X143362620Y-77057619D01*
X143365851Y-77061788D01*
X143469114Y-77201021D01*
X143473505Y-77207343D01*
X143517914Y-77275726D01*
X143565599Y-77349155D01*
X143567963Y-77352942D01*
X143656975Y-77501451D01*
X143661101Y-77508904D01*
X143738037Y-77659898D01*
X143739647Y-77663176D01*
X143813510Y-77819345D01*
X143817179Y-77827925D01*
X143878168Y-77986810D01*
X143879155Y-77989472D01*
X143937111Y-78151447D01*
X143940135Y-78161128D01*
X143984535Y-78326827D01*
X143985044Y-78328792D01*
X144026526Y-78494398D01*
X144028715Y-78505130D01*
X144056041Y-78677665D01*
X144056226Y-78678867D01*
X144080818Y-78844649D01*
X144081990Y-78856355D01*
X144091989Y-79047157D01*
X144091886Y-79047162D01*
X144092011Y-79047561D01*
X144099351Y-79196967D01*
X144099500Y-79203052D01*
X144099500Y-112196948D01*
X144099351Y-112203033D01*
X144092014Y-112352369D01*
X144091993Y-112352774D01*
X144081990Y-112543644D01*
X144080818Y-112555349D01*
X144056226Y-112721131D01*
X144056041Y-112722333D01*
X144028715Y-112894868D01*
X144026526Y-112905600D01*
X143985044Y-113071206D01*
X143984535Y-113073171D01*
X143940135Y-113238870D01*
X143937111Y-113248551D01*
X143879155Y-113410526D01*
X143878168Y-113413188D01*
X143817179Y-113572073D01*
X143813510Y-113580653D01*
X143739647Y-113736822D01*
X143738037Y-113740100D01*
X143661101Y-113891094D01*
X143656975Y-113898547D01*
X143567963Y-114047056D01*
X143565599Y-114050843D01*
X143473512Y-114192645D01*
X143469114Y-114198977D01*
X143365851Y-114338210D01*
X143362620Y-114342379D01*
X143256331Y-114473635D01*
X143251843Y-114478872D01*
X143135362Y-114607389D01*
X143131165Y-114611797D01*
X143011797Y-114731165D01*
X143007389Y-114735362D01*
X142878872Y-114851843D01*
X142873635Y-114856331D01*
X142742379Y-114962620D01*
X142738210Y-114965851D01*
X142598977Y-115069114D01*
X142592645Y-115073512D01*
X142450843Y-115165599D01*
X142447056Y-115167963D01*
X142298547Y-115256975D01*
X142291094Y-115261101D01*
X142140100Y-115338037D01*
X142136822Y-115339647D01*
X141980653Y-115413510D01*
X141972073Y-115417179D01*
X141813188Y-115478168D01*
X141810526Y-115479155D01*
X141648551Y-115537111D01*
X141638870Y-115540135D01*
X141473171Y-115584535D01*
X141471206Y-115585044D01*
X141305600Y-115626526D01*
X141294868Y-115628715D01*
X141122333Y-115656041D01*
X141121131Y-115656226D01*
X140955349Y-115680818D01*
X140943644Y-115681990D01*
X140752774Y-115691993D01*
X140752369Y-115692014D01*
X140603033Y-115699351D01*
X140596948Y-115699500D01*
X120603052Y-115699500D01*
X120596967Y-115699351D01*
X120447629Y-115692014D01*
X120447224Y-115691993D01*
X120256354Y-115681990D01*
X120244649Y-115680818D01*
X120078867Y-115656226D01*
X120077665Y-115656041D01*
X119905130Y-115628715D01*
X119894398Y-115626526D01*
X119728792Y-115585044D01*
X119726827Y-115584535D01*
X119561128Y-115540135D01*
X119551447Y-115537111D01*
X119389472Y-115479155D01*
X119386810Y-115478168D01*
X119227925Y-115417179D01*
X119219351Y-115413512D01*
X119063176Y-115339647D01*
X119059898Y-115338037D01*
X118908904Y-115261101D01*
X118901451Y-115256975D01*
X118752942Y-115167963D01*
X118749155Y-115165599D01*
X118701996Y-115134973D01*
X118607343Y-115073505D01*
X118601021Y-115069114D01*
X118461788Y-114965851D01*
X118457619Y-114962620D01*
X118326363Y-114856331D01*
X118321126Y-114851843D01*
X118192609Y-114735362D01*
X118188201Y-114731165D01*
X118068833Y-114611797D01*
X118064636Y-114607389D01*
X117948155Y-114478872D01*
X117943667Y-114473635D01*
X117837378Y-114342379D01*
X117834147Y-114338210D01*
X117730884Y-114198977D01*
X117726503Y-114192670D01*
X117634387Y-114050824D01*
X117632035Y-114047056D01*
X117606812Y-114004974D01*
X117543023Y-113898547D01*
X117538897Y-113891094D01*
X117534511Y-113882487D01*
X117461939Y-113740055D01*
X117460374Y-113736869D01*
X117386475Y-113580623D01*
X117382829Y-113572097D01*
X117321830Y-113413188D01*
X117320843Y-113410526D01*
X117310173Y-113380705D01*
X117262884Y-113248544D01*
X117259863Y-113238870D01*
X117215422Y-113073014D01*
X117214997Y-113071374D01*
X117173465Y-112905570D01*
X117171289Y-112894897D01*
X117143940Y-112722225D01*
X117143791Y-112721254D01*
X117119177Y-112555324D01*
X117118010Y-112543670D01*
X117107985Y-112352369D01*
X117100647Y-112202994D01*
X117100499Y-112196988D01*
X117100000Y-100645053D01*
X117100000Y-98858703D01*
X123163330Y-98858703D01*
X123170763Y-98866814D01*
X123228190Y-98907025D01*
X123237540Y-98912423D01*
X123433881Y-99003979D01*
X123444015Y-99007667D01*
X123653275Y-99063739D01*
X123663906Y-99065613D01*
X123879718Y-99084494D01*
X123890508Y-99084494D01*
X124106319Y-99065613D01*
X124116950Y-99063739D01*
X124326210Y-99007667D01*
X124336344Y-99003979D01*
X124532693Y-98912420D01*
X124542028Y-98907030D01*
X124550363Y-98901194D01*
X124609374Y-98879358D01*
X124671506Y-98889297D01*
X124715714Y-98924442D01*
X124715981Y-98924176D01*
X124718311Y-98926506D01*
X124720759Y-98928452D01*
X124727567Y-98937546D01*
X124842782Y-99023796D01*
X124977630Y-99074091D01*
X125037240Y-99080500D01*
X125713794Y-99080499D01*
X125775272Y-99096812D01*
X125820574Y-99141459D01*
X125837781Y-99202694D01*
X125837814Y-99205016D01*
X125836853Y-99213160D01*
X125838050Y-99221269D01*
X125838051Y-99221273D01*
X125855716Y-99340857D01*
X125855718Y-99340867D01*
X125856315Y-99344907D01*
X125857440Y-99348837D01*
X125857441Y-99348842D01*
X125873011Y-99403240D01*
X125873014Y-99403249D01*
X125874138Y-99407175D01*
X125875770Y-99410921D01*
X125875773Y-99410929D01*
X125924054Y-99521745D01*
X125927332Y-99529268D01*
X126010566Y-99633230D01*
X126034750Y-99656381D01*
X126054392Y-99675184D01*
X126054396Y-99675187D01*
X126057352Y-99678017D01*
X126164848Y-99756635D01*
X127030182Y-100228635D01*
X127073693Y-100245737D01*
X127143729Y-100273266D01*
X127143733Y-100273267D01*
X127147340Y-100274685D01*
X127206718Y-100289826D01*
X127331620Y-100305500D01*
X129655602Y-100305500D01*
X129710507Y-100318318D01*
X129754060Y-100354121D01*
X129777259Y-100405508D01*
X129775306Y-100461855D01*
X129748607Y-100511513D01*
X125853702Y-104928414D01*
X125853684Y-104928435D01*
X125851851Y-104930515D01*
X125850201Y-104932765D01*
X125850192Y-104932778D01*
X125799605Y-105001819D01*
X125799594Y-105001834D01*
X125797945Y-105004086D01*
X125796504Y-105006478D01*
X125796498Y-105006488D01*
X125776401Y-105039863D01*
X125776395Y-105039872D01*
X125774957Y-105042262D01*
X125773739Y-105044771D01*
X125773735Y-105044780D01*
X125737593Y-105119282D01*
X125737589Y-105119290D01*
X125735149Y-105124322D01*
X125733650Y-105129715D01*
X125733648Y-105129722D01*
X125711484Y-105209495D01*
X125711479Y-105209515D01*
X125710734Y-105212198D01*
X125710231Y-105214947D01*
X125710231Y-105214951D01*
X125703229Y-105253282D01*
X125703226Y-105253300D01*
X125702727Y-105256035D01*
X125702474Y-105258824D01*
X125702474Y-105258827D01*
X125694752Y-105344075D01*
X125694751Y-105344088D01*
X125694500Y-105346864D01*
X125694500Y-113376000D01*
X125695028Y-113380017D01*
X125695029Y-113380019D01*
X125711194Y-113502807D01*
X125711196Y-113502819D01*
X125711725Y-113506834D01*
X125712773Y-113510748D01*
X125712775Y-113510754D01*
X125727286Y-113564909D01*
X125728338Y-113568834D01*
X125729891Y-113572584D01*
X125729893Y-113572589D01*
X125775726Y-113683240D01*
X125778837Y-113690750D01*
X125783783Y-113697196D01*
X125783785Y-113697199D01*
X125816705Y-113740100D01*
X125859171Y-113795442D01*
X125904558Y-113840829D01*
X125925948Y-113857242D01*
X125979776Y-113898547D01*
X126009250Y-113921163D01*
X126131166Y-113971662D01*
X126193166Y-113988275D01*
X126324000Y-114005500D01*
X130071947Y-114005500D01*
X130076000Y-114005500D01*
X130206834Y-113988275D01*
X130268834Y-113971662D01*
X130390750Y-113921163D01*
X130474056Y-113857239D01*
X130522596Y-113834579D01*
X130576172Y-113834511D01*
X130624772Y-113857049D01*
X130709604Y-113921801D01*
X130831129Y-113971922D01*
X130892911Y-113988409D01*
X131023247Y-114005500D01*
X134971947Y-114005500D01*
X134976000Y-114005500D01*
X135106834Y-113988275D01*
X135168834Y-113971662D01*
X135290750Y-113921163D01*
X135395442Y-113840829D01*
X135440829Y-113795442D01*
X135521163Y-113690750D01*
X135571662Y-113568834D01*
X135588275Y-113506834D01*
X135605500Y-113376000D01*
X135605500Y-104065000D01*
X137194357Y-104065000D01*
X137214885Y-104286536D01*
X137216454Y-104292050D01*
X137274201Y-104495013D01*
X137274204Y-104495021D01*
X137275771Y-104500528D01*
X137278323Y-104505653D01*
X137278325Y-104505658D01*
X137372387Y-104694559D01*
X137372389Y-104694563D01*
X137374942Y-104699689D01*
X137378391Y-104704256D01*
X137378394Y-104704261D01*
X137505561Y-104872658D01*
X137505566Y-104872663D01*
X137509019Y-104877236D01*
X137513255Y-104881097D01*
X137513259Y-104881102D01*
X137625603Y-104983517D01*
X137673438Y-105027124D01*
X137862599Y-105144247D01*
X138070060Y-105224618D01*
X138288757Y-105265500D01*
X138505514Y-105265500D01*
X138511243Y-105265500D01*
X138729940Y-105224618D01*
X138937401Y-105144247D01*
X139126562Y-105027124D01*
X139290981Y-104877236D01*
X139425058Y-104699689D01*
X139524229Y-104500528D01*
X139585115Y-104286536D01*
X139605643Y-104065000D01*
X139585115Y-103843464D01*
X139524229Y-103629472D01*
X139425058Y-103430311D01*
X139421605Y-103425738D01*
X139294438Y-103257341D01*
X139294434Y-103257337D01*
X139290981Y-103252764D01*
X139240961Y-103207165D01*
X139211066Y-103165615D01*
X139200500Y-103115529D01*
X139200500Y-103064765D01*
X139207283Y-103024315D01*
X139226320Y-102989336D01*
X139230472Y-102985185D01*
X139318478Y-102839606D01*
X139369086Y-102677196D01*
X139375500Y-102606616D01*
X139375500Y-102093384D01*
X139369086Y-102022804D01*
X139318478Y-101860394D01*
X139230472Y-101714815D01*
X139127984Y-101612327D01*
X139095890Y-101556740D01*
X139095890Y-101492552D01*
X139127984Y-101436965D01*
X139224771Y-101340177D01*
X139233954Y-101328456D01*
X139314135Y-101195820D01*
X139320251Y-101182232D01*
X139366638Y-101033372D01*
X139369184Y-101020568D01*
X139374338Y-100963856D01*
X139371549Y-100953450D01*
X139358674Y-100950000D01*
X137441327Y-100950000D01*
X137428451Y-100953450D01*
X137425662Y-100963856D01*
X137430815Y-101020570D01*
X137433361Y-101033369D01*
X137479748Y-101182232D01*
X137485864Y-101195820D01*
X137566045Y-101328456D01*
X137575228Y-101340177D01*
X137672016Y-101436965D01*
X137704110Y-101492552D01*
X137704110Y-101556740D01*
X137672016Y-101612327D01*
X137574831Y-101709511D01*
X137574827Y-101709515D01*
X137569528Y-101714815D01*
X137565651Y-101721227D01*
X137565648Y-101721232D01*
X137485400Y-101853978D01*
X137485398Y-101853982D01*
X137481522Y-101860394D01*
X137479292Y-101867548D01*
X137479292Y-101867550D01*
X137432864Y-102016542D01*
X137432861Y-102016553D01*
X137430914Y-102022804D01*
X137430320Y-102029335D01*
X137430320Y-102029338D01*
X137427131Y-102064437D01*
X137424500Y-102093384D01*
X137424500Y-102606616D01*
X137430914Y-102677196D01*
X137432862Y-102683448D01*
X137432864Y-102683457D01*
X137472452Y-102810500D01*
X137481522Y-102839606D01*
X137569528Y-102985185D01*
X137573679Y-102989336D01*
X137592717Y-103024315D01*
X137599500Y-103064765D01*
X137599500Y-103115529D01*
X137588934Y-103165615D01*
X137559038Y-103207166D01*
X137513259Y-103248898D01*
X137513254Y-103248902D01*
X137509019Y-103252764D01*
X137505570Y-103257330D01*
X137505561Y-103257341D01*
X137378394Y-103425738D01*
X137378387Y-103425748D01*
X137374942Y-103430311D01*
X137372392Y-103435431D01*
X137372387Y-103435440D01*
X137278325Y-103624341D01*
X137278321Y-103624349D01*
X137275771Y-103629472D01*
X137274205Y-103634975D01*
X137274201Y-103634986D01*
X137216454Y-103837949D01*
X137214885Y-103843464D01*
X137194357Y-104065000D01*
X135605500Y-104065000D01*
X135605500Y-100320123D01*
X135598973Y-100239154D01*
X135592610Y-100199942D01*
X135573196Y-100121058D01*
X135278703Y-99237580D01*
X137226920Y-99237580D01*
X137227440Y-99248835D01*
X137274672Y-99414840D01*
X137278792Y-99425474D01*
X137372813Y-99614295D01*
X137378820Y-99623997D01*
X137505932Y-99792320D01*
X137513630Y-99800763D01*
X137585399Y-99866189D01*
X137620590Y-99922058D01*
X137622116Y-99988069D01*
X137589544Y-100045505D01*
X137575228Y-100059821D01*
X137566047Y-100071539D01*
X137485864Y-100204179D01*
X137479748Y-100217767D01*
X137433361Y-100366627D01*
X137430815Y-100379431D01*
X137425661Y-100436143D01*
X137428450Y-100446549D01*
X137441326Y-100450000D01*
X138133674Y-100450000D01*
X138146549Y-100446549D01*
X138150000Y-100433674D01*
X138650000Y-100433674D01*
X138653450Y-100446549D01*
X138666326Y-100450000D01*
X139358673Y-100450000D01*
X139371548Y-100446549D01*
X139374337Y-100436143D01*
X139369184Y-100379429D01*
X139366638Y-100366630D01*
X139320251Y-100217767D01*
X139314135Y-100204179D01*
X139233954Y-100071543D01*
X139224771Y-100059822D01*
X139210457Y-100045508D01*
X139177883Y-99988072D01*
X139179408Y-99922060D01*
X139214600Y-99866190D01*
X139286369Y-99800763D01*
X139294067Y-99792320D01*
X139421179Y-99623997D01*
X139427186Y-99614295D01*
X139521207Y-99425474D01*
X139525327Y-99414840D01*
X139572559Y-99248835D01*
X139573079Y-99237580D01*
X139562110Y-99235000D01*
X138666326Y-99235000D01*
X138653450Y-99238450D01*
X138650000Y-99251326D01*
X138650000Y-100433674D01*
X138150000Y-100433674D01*
X138150000Y-99251326D01*
X138146549Y-99238450D01*
X138133674Y-99235000D01*
X137237890Y-99235000D01*
X137226920Y-99237580D01*
X135278703Y-99237580D01*
X135110316Y-98732419D01*
X137226920Y-98732419D01*
X137237890Y-98735000D01*
X138133674Y-98735000D01*
X138146549Y-98731549D01*
X138150000Y-98718674D01*
X138650000Y-98718674D01*
X138653450Y-98731549D01*
X138666326Y-98735000D01*
X139562110Y-98735000D01*
X139573079Y-98732419D01*
X139572559Y-98721164D01*
X139525327Y-98555159D01*
X139521207Y-98544525D01*
X139427186Y-98355704D01*
X139421179Y-98346002D01*
X139294067Y-98177679D01*
X139286369Y-98169235D01*
X139130494Y-98027137D01*
X139121390Y-98020261D01*
X138942049Y-97909218D01*
X138931836Y-97904132D01*
X138735144Y-97827933D01*
X138724168Y-97824811D01*
X138663429Y-97813457D01*
X138652401Y-97813839D01*
X138650000Y-97824607D01*
X138650000Y-98718674D01*
X138150000Y-98718674D01*
X138150000Y-97824607D01*
X138147598Y-97813839D01*
X138136570Y-97813457D01*
X138075831Y-97824811D01*
X138064855Y-97827933D01*
X137868163Y-97904132D01*
X137857950Y-97909218D01*
X137678609Y-98020261D01*
X137669505Y-98027137D01*
X137513630Y-98169235D01*
X137505932Y-98177679D01*
X137378820Y-98346002D01*
X137372813Y-98355704D01*
X137278792Y-98544525D01*
X137274672Y-98555159D01*
X137227440Y-98721164D01*
X137226920Y-98732419D01*
X135110316Y-98732419D01*
X134707821Y-97524933D01*
X134664428Y-97429268D01*
X134638521Y-97385045D01*
X134576299Y-97300422D01*
X134572790Y-97297291D01*
X134567682Y-97291106D01*
X134517858Y-97224550D01*
X134512546Y-97217454D01*
X134481883Y-97194500D01*
X134404431Y-97136519D01*
X134404430Y-97136518D01*
X134397331Y-97131204D01*
X134262483Y-97080909D01*
X134254770Y-97080079D01*
X134254767Y-97080079D01*
X134206180Y-97074855D01*
X134206169Y-97074854D01*
X134202873Y-97074500D01*
X134199550Y-97074500D01*
X133610439Y-97074500D01*
X133610420Y-97074500D01*
X133607128Y-97074501D01*
X133603850Y-97074853D01*
X133603838Y-97074854D01*
X133555231Y-97080079D01*
X133555225Y-97080080D01*
X133547517Y-97080909D01*
X133540252Y-97083618D01*
X133540246Y-97083620D01*
X133420980Y-97128104D01*
X133420978Y-97128104D01*
X133412669Y-97131204D01*
X133405569Y-97136518D01*
X133405569Y-97136519D01*
X133344309Y-97182377D01*
X133296356Y-97204275D01*
X133243640Y-97204275D01*
X133195688Y-97182376D01*
X133134431Y-97136519D01*
X133134430Y-97136518D01*
X133127331Y-97131204D01*
X132992483Y-97080909D01*
X132984770Y-97080079D01*
X132984767Y-97080079D01*
X132936180Y-97074855D01*
X132936169Y-97074854D01*
X132932873Y-97074500D01*
X132929550Y-97074500D01*
X132340439Y-97074500D01*
X132340420Y-97074500D01*
X132337128Y-97074501D01*
X132333850Y-97074853D01*
X132333838Y-97074854D01*
X132285231Y-97080079D01*
X132285225Y-97080080D01*
X132277517Y-97080909D01*
X132270252Y-97083618D01*
X132270246Y-97083620D01*
X132150980Y-97128104D01*
X132150978Y-97128104D01*
X132142669Y-97131204D01*
X132135569Y-97136518D01*
X132135569Y-97136519D01*
X132074309Y-97182377D01*
X132026356Y-97204275D01*
X131973640Y-97204275D01*
X131925688Y-97182376D01*
X131864431Y-97136519D01*
X131864430Y-97136518D01*
X131857331Y-97131204D01*
X131722483Y-97080909D01*
X131714770Y-97080079D01*
X131714767Y-97080079D01*
X131666180Y-97074855D01*
X131666169Y-97074854D01*
X131662873Y-97074500D01*
X131659550Y-97074500D01*
X131070439Y-97074500D01*
X131070420Y-97074500D01*
X131067128Y-97074501D01*
X131063850Y-97074853D01*
X131063838Y-97074854D01*
X131015231Y-97080079D01*
X131015225Y-97080080D01*
X131007517Y-97080909D01*
X131000252Y-97083618D01*
X131000246Y-97083620D01*
X130880980Y-97128104D01*
X130880978Y-97128104D01*
X130872669Y-97131204D01*
X130865569Y-97136518D01*
X130865569Y-97136519D01*
X130804309Y-97182377D01*
X130756356Y-97204275D01*
X130703640Y-97204275D01*
X130655688Y-97182376D01*
X130594431Y-97136519D01*
X130594430Y-97136518D01*
X130587331Y-97131204D01*
X130452483Y-97080909D01*
X130444770Y-97080079D01*
X130444767Y-97080079D01*
X130396180Y-97074855D01*
X130396169Y-97074854D01*
X130392873Y-97074500D01*
X130389550Y-97074500D01*
X129800439Y-97074500D01*
X129800420Y-97074500D01*
X129797128Y-97074501D01*
X129793850Y-97074853D01*
X129793838Y-97074854D01*
X129745231Y-97080079D01*
X129745225Y-97080080D01*
X129737517Y-97080909D01*
X129730252Y-97083618D01*
X129730246Y-97083620D01*
X129610979Y-97128104D01*
X129610975Y-97128105D01*
X129602669Y-97131204D01*
X129551153Y-97169769D01*
X129516006Y-97188154D01*
X129476846Y-97194500D01*
X128782687Y-97194500D01*
X128731890Y-97183618D01*
X128690008Y-97152881D01*
X128611116Y-97064128D01*
X128245643Y-96652971D01*
X128236821Y-96643046D01*
X128213595Y-96604732D01*
X128205500Y-96560665D01*
X128205500Y-90953545D01*
X128214479Y-90907218D01*
X128240117Y-90867600D01*
X128401271Y-90700000D01*
X129294435Y-90700000D01*
X129295215Y-90706923D01*
X129298720Y-90738031D01*
X129299500Y-90751914D01*
X129299500Y-92798929D01*
X129296391Y-92826519D01*
X129294500Y-92834806D01*
X129294500Y-93015194D01*
X129296048Y-93021980D01*
X129296049Y-93021981D01*
X129333089Y-93184269D01*
X129333091Y-93184275D01*
X129334640Y-93191061D01*
X129337567Y-93197139D01*
X129344500Y-93237948D01*
X129344500Y-94069560D01*
X129344500Y-94069578D01*
X129344501Y-94072872D01*
X129344853Y-94076150D01*
X129344854Y-94076161D01*
X129350079Y-94124768D01*
X129350080Y-94124773D01*
X129350909Y-94132483D01*
X129353619Y-94139749D01*
X129353620Y-94139753D01*
X129387217Y-94229831D01*
X129401204Y-94267331D01*
X129487454Y-94382546D01*
X129602669Y-94468796D01*
X129737517Y-94519091D01*
X129797127Y-94525500D01*
X130392872Y-94525499D01*
X130452483Y-94519091D01*
X130587331Y-94468796D01*
X130655689Y-94417622D01*
X130703642Y-94395724D01*
X130756358Y-94395724D01*
X130804310Y-94417622D01*
X130872669Y-94468796D01*
X131007517Y-94519091D01*
X131067127Y-94525500D01*
X131662872Y-94525499D01*
X131722483Y-94519091D01*
X131857331Y-94468796D01*
X131925689Y-94417622D01*
X131973642Y-94395724D01*
X132026358Y-94395724D01*
X132074310Y-94417622D01*
X132142669Y-94468796D01*
X132277517Y-94519091D01*
X132337127Y-94525500D01*
X132932872Y-94525499D01*
X132992483Y-94519091D01*
X133127331Y-94468796D01*
X133242546Y-94382546D01*
X133328796Y-94267331D01*
X133379091Y-94132483D01*
X133385500Y-94072873D01*
X133385499Y-93224969D01*
X133392457Y-93184017D01*
X133420368Y-93104255D01*
X133435500Y-92969954D01*
X133435500Y-90637940D01*
X133444939Y-90590487D01*
X133471819Y-90550259D01*
X134085258Y-89936819D01*
X134125486Y-89909939D01*
X134172939Y-89900500D01*
X138967060Y-89900500D01*
X139014513Y-89909939D01*
X139054741Y-89936819D01*
X140060184Y-90942262D01*
X140187738Y-91069816D01*
X140193633Y-91073520D01*
X140220143Y-91090177D01*
X140231484Y-91098223D01*
X140261413Y-91122091D01*
X140267688Y-91125113D01*
X140267690Y-91125114D01*
X140295895Y-91138697D01*
X140308064Y-91145422D01*
X140340478Y-91165789D01*
X140347047Y-91168087D01*
X140347048Y-91168088D01*
X140376606Y-91178431D01*
X140389443Y-91183747D01*
X140423939Y-91200360D01*
X140461266Y-91208879D01*
X140474613Y-91212725D01*
X140504170Y-91223068D01*
X140504175Y-91223069D01*
X140510745Y-91225368D01*
X140548778Y-91229653D01*
X140562484Y-91231981D01*
X140599806Y-91240500D01*
X140645046Y-91240500D01*
X140780194Y-91240500D01*
X140807310Y-91240500D01*
X140864568Y-91254511D01*
X140908886Y-91293379D01*
X140918397Y-91306963D01*
X140918400Y-91306966D01*
X140921505Y-91311401D01*
X141088599Y-91478495D01*
X141282170Y-91614035D01*
X141496337Y-91713903D01*
X141724592Y-91775063D01*
X141960000Y-91795659D01*
X142195408Y-91775063D01*
X142423663Y-91713903D01*
X142637830Y-91614035D01*
X142831401Y-91478495D01*
X142998495Y-91311401D01*
X143134035Y-91117830D01*
X143233903Y-90903663D01*
X143295063Y-90675408D01*
X143315659Y-90440000D01*
X143295063Y-90204592D01*
X143233903Y-89976337D01*
X143134035Y-89762171D01*
X142998495Y-89568599D01*
X142876569Y-89446673D01*
X142845273Y-89393927D01*
X142843084Y-89332634D01*
X142870537Y-89277789D01*
X142920916Y-89242810D01*
X143052331Y-89193796D01*
X143167546Y-89107546D01*
X143253796Y-88992331D01*
X143304091Y-88857483D01*
X143310500Y-88797873D01*
X143310499Y-87002128D01*
X143304091Y-86942517D01*
X143253796Y-86807669D01*
X143167546Y-86692454D01*
X143052331Y-86606204D01*
X142917483Y-86555909D01*
X142909770Y-86555079D01*
X142909767Y-86555079D01*
X142861180Y-86549855D01*
X142861169Y-86549854D01*
X142857873Y-86549500D01*
X142854550Y-86549500D01*
X141065439Y-86549500D01*
X141065420Y-86549500D01*
X141062128Y-86549501D01*
X141058850Y-86549853D01*
X141058838Y-86549854D01*
X141010231Y-86555079D01*
X141010225Y-86555080D01*
X141002517Y-86555909D01*
X140995252Y-86558618D01*
X140995246Y-86558620D01*
X140875980Y-86603104D01*
X140875978Y-86603104D01*
X140867669Y-86606204D01*
X140860572Y-86611516D01*
X140860568Y-86611519D01*
X140759550Y-86687141D01*
X140759546Y-86687144D01*
X140752454Y-86692454D01*
X140747144Y-86699546D01*
X140747141Y-86699550D01*
X140671519Y-86800568D01*
X140671516Y-86800572D01*
X140666204Y-86807669D01*
X140663104Y-86815978D01*
X140663104Y-86815980D01*
X140618620Y-86935247D01*
X140618619Y-86935250D01*
X140615909Y-86942517D01*
X140610937Y-86988758D01*
X140590340Y-87045003D01*
X140545777Y-87085032D01*
X140487649Y-87099500D01*
X133130194Y-87099500D01*
X132949806Y-87099500D01*
X132943020Y-87101048D01*
X132943008Y-87101050D01*
X132912479Y-87108017D01*
X132898781Y-87110345D01*
X132867665Y-87113852D01*
X132867663Y-87113852D01*
X132860745Y-87114632D01*
X132824619Y-87127272D01*
X132811268Y-87131118D01*
X132780726Y-87138089D01*
X132780711Y-87138094D01*
X132773939Y-87139640D01*
X132767672Y-87142657D01*
X132767674Y-87142657D01*
X132739441Y-87156252D01*
X132726603Y-87161569D01*
X132697046Y-87171912D01*
X132697041Y-87171914D01*
X132690478Y-87174211D01*
X132684592Y-87177908D01*
X132684582Y-87177914D01*
X132658066Y-87194575D01*
X132645903Y-87201297D01*
X132617695Y-87214882D01*
X132617687Y-87214886D01*
X132611414Y-87217908D01*
X132581478Y-87241779D01*
X132570155Y-87249813D01*
X132561226Y-87255424D01*
X132543633Y-87266479D01*
X132543628Y-87266482D01*
X132537738Y-87270184D01*
X132532815Y-87275106D01*
X132532811Y-87275110D01*
X132410182Y-87397740D01*
X130862738Y-88945183D01*
X130862735Y-88945186D01*
X130862736Y-88945186D01*
X130735184Y-89072738D01*
X130731479Y-89078632D01*
X130731479Y-89078634D01*
X130714816Y-89105152D01*
X130706773Y-89116487D01*
X130687253Y-89140965D01*
X130687251Y-89140967D01*
X130682909Y-89146413D01*
X130679889Y-89152682D01*
X130679883Y-89152693D01*
X130666299Y-89180900D01*
X130659577Y-89193064D01*
X130648898Y-89210061D01*
X130639211Y-89225478D01*
X130636915Y-89232037D01*
X130636911Y-89232047D01*
X130626565Y-89261613D01*
X130621247Y-89274451D01*
X130607660Y-89302666D01*
X130607657Y-89302671D01*
X130604640Y-89308939D01*
X130603092Y-89315717D01*
X130603089Y-89315728D01*
X130596118Y-89346268D01*
X130592272Y-89359619D01*
X130579632Y-89395745D01*
X130578852Y-89402663D01*
X130578852Y-89402665D01*
X130575345Y-89433781D01*
X130573017Y-89447479D01*
X130566050Y-89478008D01*
X130566048Y-89478020D01*
X130564500Y-89484806D01*
X130564500Y-89491772D01*
X130564500Y-89839681D01*
X130550667Y-89896595D01*
X130512255Y-89940810D01*
X130457834Y-89962463D01*
X130399546Y-89956723D01*
X130285827Y-89916931D01*
X130285821Y-89916929D01*
X130279255Y-89914632D01*
X130272335Y-89913852D01*
X130272334Y-89913852D01*
X130106923Y-89895215D01*
X130100000Y-89894435D01*
X130093077Y-89895215D01*
X129927665Y-89913852D01*
X129927662Y-89913852D01*
X129920745Y-89914632D01*
X129914182Y-89916928D01*
X129914175Y-89916930D01*
X129757043Y-89971913D01*
X129757036Y-89971915D01*
X129750478Y-89974211D01*
X129744590Y-89977910D01*
X129744587Y-89977912D01*
X129603638Y-90066476D01*
X129603633Y-90066479D01*
X129597738Y-90070184D01*
X129592813Y-90075108D01*
X129592809Y-90075112D01*
X129475112Y-90192809D01*
X129475108Y-90192813D01*
X129470184Y-90197738D01*
X129466479Y-90203633D01*
X129466476Y-90203638D01*
X129377912Y-90344587D01*
X129377910Y-90344590D01*
X129374211Y-90350478D01*
X129371915Y-90357036D01*
X129371913Y-90357043D01*
X129316930Y-90514175D01*
X129316928Y-90514182D01*
X129314632Y-90520745D01*
X129313852Y-90527662D01*
X129313852Y-90527665D01*
X129307214Y-90586578D01*
X129294435Y-90700000D01*
X128401271Y-90700000D01*
X133051390Y-85863873D01*
X133056601Y-85858766D01*
X135602978Y-83508267D01*
X135671808Y-83430137D01*
X135701291Y-83388754D01*
X135752652Y-83298181D01*
X135784367Y-83199007D01*
X135794777Y-83149274D01*
X135805500Y-83045708D01*
X135805500Y-77824000D01*
X135788275Y-77693166D01*
X135771662Y-77631166D01*
X135721163Y-77509250D01*
X135640829Y-77404558D01*
X135595442Y-77359171D01*
X135547943Y-77322723D01*
X135497199Y-77283785D01*
X135497196Y-77283783D01*
X135490750Y-77278837D01*
X135483241Y-77275726D01*
X135483240Y-77275726D01*
X135372589Y-77229893D01*
X135372584Y-77229891D01*
X135368834Y-77228338D01*
X135364913Y-77227287D01*
X135364909Y-77227286D01*
X135310754Y-77212775D01*
X135310748Y-77212773D01*
X135306834Y-77211725D01*
X135302819Y-77211196D01*
X135302807Y-77211194D01*
X135180019Y-77195029D01*
X135180017Y-77195028D01*
X135176000Y-77194500D01*
X131024000Y-77194500D01*
X131019983Y-77195028D01*
X131019980Y-77195029D01*
X130897192Y-77211194D01*
X130897177Y-77211196D01*
X130893166Y-77211725D01*
X130889254Y-77212773D01*
X130889245Y-77212775D01*
X130835090Y-77227286D01*
X130835082Y-77227288D01*
X130831166Y-77228338D01*
X130827420Y-77229889D01*
X130827410Y-77229893D01*
X130716759Y-77275726D01*
X130716754Y-77275728D01*
X130709250Y-77278837D01*
X130702806Y-77283780D01*
X130702800Y-77283785D01*
X130607789Y-77356691D01*
X130607782Y-77356696D01*
X130604558Y-77359171D01*
X130601685Y-77362043D01*
X130601677Y-77362051D01*
X130562051Y-77401677D01*
X130562043Y-77401685D01*
X130559171Y-77404558D01*
X130556696Y-77407782D01*
X130556691Y-77407789D01*
X130483785Y-77502800D01*
X130483780Y-77502806D01*
X130478837Y-77509250D01*
X130475728Y-77516754D01*
X130475726Y-77516759D01*
X130429893Y-77627410D01*
X130429889Y-77627420D01*
X130428338Y-77631166D01*
X130427288Y-77635082D01*
X130427286Y-77635090D01*
X130412775Y-77689245D01*
X130412773Y-77689254D01*
X130411725Y-77693166D01*
X130411196Y-77697177D01*
X130411194Y-77697192D01*
X130395113Y-77819345D01*
X130394500Y-77824000D01*
X130394500Y-77828053D01*
X130394500Y-83045479D01*
X130385459Y-83091959D01*
X130359655Y-83131660D01*
X129995603Y-83508267D01*
X124773459Y-88910484D01*
X124773450Y-88910493D01*
X124771396Y-88912619D01*
X124769554Y-88914932D01*
X124769544Y-88914944D01*
X124712851Y-88986154D01*
X124712841Y-88986167D01*
X124710997Y-88988484D01*
X124709386Y-88990962D01*
X124709375Y-88990978D01*
X124686814Y-89025692D01*
X124686809Y-89025700D01*
X124685193Y-89028187D01*
X124683821Y-89030818D01*
X124683816Y-89030829D01*
X124643151Y-89108887D01*
X124643148Y-89108894D01*
X124640396Y-89114177D01*
X124638704Y-89119884D01*
X124638700Y-89119895D01*
X124613688Y-89204278D01*
X124613684Y-89204292D01*
X124612841Y-89207138D01*
X124612274Y-89210052D01*
X124612272Y-89210061D01*
X124604368Y-89250695D01*
X124604366Y-89250706D01*
X124603800Y-89253618D01*
X124603515Y-89256571D01*
X124603513Y-89256588D01*
X124594786Y-89347162D01*
X124594785Y-89347173D01*
X124594500Y-89350136D01*
X124594500Y-96356000D01*
X124595028Y-96360015D01*
X124595029Y-96360021D01*
X124609938Y-96473268D01*
X124601036Y-96538153D01*
X124560321Y-96589452D01*
X124499153Y-96612856D01*
X124434595Y-96601835D01*
X124336349Y-96556022D01*
X124326210Y-96552332D01*
X124116950Y-96496260D01*
X124106319Y-96494386D01*
X123890508Y-96475506D01*
X123879718Y-96475506D01*
X123663906Y-96494386D01*
X123653275Y-96496260D01*
X123444015Y-96552332D01*
X123433881Y-96556020D01*
X123237538Y-96647577D01*
X123228194Y-96652971D01*
X123170764Y-96693183D01*
X123163330Y-96701296D01*
X123169241Y-96710574D01*
X123885113Y-97426447D01*
X124150985Y-97692319D01*
X124183079Y-97747906D01*
X124183079Y-97812094D01*
X124150985Y-97867681D01*
X123169241Y-98849424D01*
X123163330Y-98858703D01*
X117100000Y-98858703D01*
X117100000Y-97785395D01*
X122580619Y-97785395D01*
X122599499Y-98001206D01*
X122601373Y-98011837D01*
X122657445Y-98221097D01*
X122661133Y-98231231D01*
X122752689Y-98427572D01*
X122758087Y-98436922D01*
X122798297Y-98494348D01*
X122806408Y-98501781D01*
X122815687Y-98495870D01*
X123520016Y-97791542D01*
X123526680Y-97779999D01*
X123520016Y-97768457D01*
X122815687Y-97064128D01*
X122806409Y-97058217D01*
X122798296Y-97065651D01*
X122758084Y-97123081D01*
X122752690Y-97132425D01*
X122661133Y-97328768D01*
X122657445Y-97338902D01*
X122601373Y-97548162D01*
X122599499Y-97558793D01*
X122580619Y-97774605D01*
X122580619Y-97785395D01*
X117100000Y-97785395D01*
X117100000Y-90692551D01*
X117772688Y-90692551D01*
X117773056Y-90703780D01*
X117825168Y-90898263D01*
X117828856Y-90908397D01*
X117924113Y-91112676D01*
X117929501Y-91122008D01*
X118058784Y-91306643D01*
X118065721Y-91314909D01*
X118225090Y-91474278D01*
X118233356Y-91481215D01*
X118417991Y-91610498D01*
X118427323Y-91615886D01*
X118631602Y-91711143D01*
X118641736Y-91714831D01*
X118836219Y-91766943D01*
X118847448Y-91767311D01*
X118850000Y-91756369D01*
X119350000Y-91756369D01*
X119352551Y-91767311D01*
X119363780Y-91766943D01*
X119558263Y-91714831D01*
X119568397Y-91711143D01*
X119772676Y-91615886D01*
X119782008Y-91610498D01*
X119966643Y-91481215D01*
X119974909Y-91474278D01*
X120134278Y-91314909D01*
X120141215Y-91306643D01*
X120270498Y-91122008D01*
X120275886Y-91112676D01*
X120371143Y-90908397D01*
X120374831Y-90898263D01*
X120426943Y-90703780D01*
X120427311Y-90692551D01*
X120416369Y-90690000D01*
X119366326Y-90690000D01*
X119353450Y-90693450D01*
X119350000Y-90706326D01*
X119350000Y-91756369D01*
X118850000Y-91756369D01*
X118850000Y-90706326D01*
X118846549Y-90693450D01*
X118833674Y-90690000D01*
X117783631Y-90690000D01*
X117772688Y-90692551D01*
X117100000Y-90692551D01*
X117100000Y-88794578D01*
X117749500Y-88794578D01*
X117749501Y-88797872D01*
X117749853Y-88801150D01*
X117749854Y-88801161D01*
X117755079Y-88849768D01*
X117755080Y-88849773D01*
X117755909Y-88857483D01*
X117758619Y-88864749D01*
X117758620Y-88864753D01*
X117780577Y-88923622D01*
X117806204Y-88992331D01*
X117811518Y-88999430D01*
X117811519Y-88999431D01*
X117852845Y-89054636D01*
X117892454Y-89107546D01*
X118007669Y-89193796D01*
X118139598Y-89243002D01*
X118189977Y-89277981D01*
X118217431Y-89332825D01*
X118215242Y-89394118D01*
X118183947Y-89446865D01*
X118065714Y-89565098D01*
X118058784Y-89573357D01*
X117929508Y-89757982D01*
X117924110Y-89767332D01*
X117828856Y-89971602D01*
X117825168Y-89981736D01*
X117773056Y-90176219D01*
X117772688Y-90187448D01*
X117783631Y-90190000D01*
X120416369Y-90190000D01*
X120427311Y-90187448D01*
X120426943Y-90176219D01*
X120374831Y-89981736D01*
X120371143Y-89971602D01*
X120275889Y-89767332D01*
X120270491Y-89757982D01*
X120141215Y-89573357D01*
X120134280Y-89565092D01*
X120016053Y-89446865D01*
X119984757Y-89394119D01*
X119982568Y-89332825D01*
X120010022Y-89277981D01*
X120060398Y-89243003D01*
X120192331Y-89193796D01*
X120307546Y-89107546D01*
X120393796Y-88992331D01*
X120444091Y-88857483D01*
X120450500Y-88797873D01*
X120450499Y-87002128D01*
X120444091Y-86942517D01*
X120393796Y-86807669D01*
X120307546Y-86692454D01*
X120192331Y-86606204D01*
X120057483Y-86555909D01*
X120049770Y-86555079D01*
X120049767Y-86555079D01*
X120001180Y-86549855D01*
X120001169Y-86549854D01*
X119997873Y-86549500D01*
X119994550Y-86549500D01*
X118205439Y-86549500D01*
X118205420Y-86549500D01*
X118202128Y-86549501D01*
X118198850Y-86549853D01*
X118198838Y-86549854D01*
X118150231Y-86555079D01*
X118150225Y-86555080D01*
X118142517Y-86555909D01*
X118135252Y-86558618D01*
X118135246Y-86558620D01*
X118015980Y-86603104D01*
X118015978Y-86603104D01*
X118007669Y-86606204D01*
X118000572Y-86611516D01*
X118000568Y-86611519D01*
X117899550Y-86687141D01*
X117899546Y-86687144D01*
X117892454Y-86692454D01*
X117887144Y-86699546D01*
X117887141Y-86699550D01*
X117811519Y-86800568D01*
X117811516Y-86800572D01*
X117806204Y-86807669D01*
X117803104Y-86815978D01*
X117803104Y-86815980D01*
X117758620Y-86935247D01*
X117758619Y-86935250D01*
X117755909Y-86942517D01*
X117755079Y-86950227D01*
X117755079Y-86950232D01*
X117749855Y-86998819D01*
X117749854Y-86998831D01*
X117749500Y-87002127D01*
X117749500Y-87005448D01*
X117749500Y-87005449D01*
X117749500Y-88794560D01*
X117749500Y-88794578D01*
X117100000Y-88794578D01*
X117100000Y-79184543D01*
X117100155Y-79178348D01*
X117106539Y-79050715D01*
X117106560Y-79050303D01*
X117116909Y-78856355D01*
X117117260Y-78849782D01*
X117118472Y-78837890D01*
X117143707Y-78670856D01*
X117143817Y-78670151D01*
X117172532Y-78492146D01*
X117174788Y-78481292D01*
X117217524Y-78313856D01*
X117217939Y-78312281D01*
X117264392Y-78142163D01*
X117267498Y-78132406D01*
X117327262Y-77968611D01*
X117328236Y-77966035D01*
X117391838Y-77803592D01*
X117395617Y-77794932D01*
X117471777Y-77637196D01*
X117473390Y-77633979D01*
X117553543Y-77479947D01*
X117557770Y-77472475D01*
X117649559Y-77322689D01*
X117651936Y-77318965D01*
X117747762Y-77174736D01*
X117752233Y-77168447D01*
X117858699Y-77028322D01*
X117861975Y-77024200D01*
X117972416Y-76891216D01*
X117977004Y-76886000D01*
X118096949Y-76757171D01*
X118101229Y-76752797D01*
X118225173Y-76632344D01*
X118229601Y-76628250D01*
X118361905Y-76511944D01*
X118367170Y-76507574D01*
X118503352Y-76400899D01*
X118507466Y-76397819D01*
X118650586Y-76295389D01*
X118657035Y-76291076D01*
X118803941Y-76199408D01*
X118807681Y-76197169D01*
X118960078Y-76109665D01*
X118967662Y-76105657D01*
X119123933Y-76029930D01*
X119127106Y-76028450D01*
X119287016Y-75956798D01*
X119295792Y-75953263D01*
X119460040Y-75894307D01*
X119462527Y-75893447D01*
X119628007Y-75838371D01*
X119637885Y-75835534D01*
X119809063Y-75794007D01*
X119810945Y-75793567D01*
X119979391Y-75755663D01*
X119990345Y-75753711D01*
X120169193Y-75730079D01*
X120169693Y-75730015D01*
X120337485Y-75709549D01*
X120349376Y-75708678D01*
X120550061Y-75703711D01*
X120695660Y-75700592D01*
X120698680Y-75700528D01*
X120700354Y-75700510D01*
X120700485Y-75700514D01*
X120700485Y-75700509D01*
X120701334Y-75700500D01*
X140596949Y-75700500D01*
X140603032Y-75700649D01*
G37*
%TD.AperFunction*%
%TD*%
M02*
