%TF.GenerationSoftware,KiCad,Pcbnew,(7.0.0)*%
%TF.CreationDate,2023-05-21T11:31:51-07:00*%
%TF.ProjectId,DRV8870-breakout-board,44525638-3837-4302-9d62-7265616b6f75,rev?*%
%TF.SameCoordinates,Original*%
%TF.FileFunction,Legend,Bot*%
%TF.FilePolarity,Positive*%
%FSLAX46Y46*%
G04 Gerber Fmt 4.6, Leading zero omitted, Abs format (unit mm)*
G04 Created by KiCad (PCBNEW (7.0.0)) date 2023-05-21 11:31:51*
%MOMM*%
%LPD*%
G01*
G04 APERTURE LIST*
%ADD10C,0.160000*%
%ADD11C,0.150000*%
%ADD12C,0.180000*%
G04 APERTURE END LIST*
D10*
X127685714Y-114738857D02*
X128371428Y-114738857D01*
X128028571Y-114738857D02*
X128028571Y-113538857D01*
X128028571Y-113538857D02*
X128142857Y-113710285D01*
X128142857Y-113710285D02*
X128257142Y-113824571D01*
X128257142Y-113824571D02*
X128371428Y-113881714D01*
D11*
X125391904Y-88061428D02*
X124630000Y-88061428D01*
X125010952Y-88442380D02*
X125010952Y-87680476D01*
X124249047Y-87442380D02*
X123630000Y-87442380D01*
X123630000Y-87442380D02*
X123963333Y-87823333D01*
X123963333Y-87823333D02*
X123820476Y-87823333D01*
X123820476Y-87823333D02*
X123725238Y-87870952D01*
X123725238Y-87870952D02*
X123677619Y-87918571D01*
X123677619Y-87918571D02*
X123630000Y-88013809D01*
X123630000Y-88013809D02*
X123630000Y-88251904D01*
X123630000Y-88251904D02*
X123677619Y-88347142D01*
X123677619Y-88347142D02*
X123725238Y-88394761D01*
X123725238Y-88394761D02*
X123820476Y-88442380D01*
X123820476Y-88442380D02*
X124106190Y-88442380D01*
X124106190Y-88442380D02*
X124201428Y-88394761D01*
X124201428Y-88394761D02*
X124249047Y-88347142D01*
X123201428Y-88347142D02*
X123153809Y-88394761D01*
X123153809Y-88394761D02*
X123201428Y-88442380D01*
X123201428Y-88442380D02*
X123249047Y-88394761D01*
X123249047Y-88394761D02*
X123201428Y-88347142D01*
X123201428Y-88347142D02*
X123201428Y-88442380D01*
X122820476Y-87442380D02*
X122201429Y-87442380D01*
X122201429Y-87442380D02*
X122534762Y-87823333D01*
X122534762Y-87823333D02*
X122391905Y-87823333D01*
X122391905Y-87823333D02*
X122296667Y-87870952D01*
X122296667Y-87870952D02*
X122249048Y-87918571D01*
X122249048Y-87918571D02*
X122201429Y-88013809D01*
X122201429Y-88013809D02*
X122201429Y-88251904D01*
X122201429Y-88251904D02*
X122249048Y-88347142D01*
X122249048Y-88347142D02*
X122296667Y-88394761D01*
X122296667Y-88394761D02*
X122391905Y-88442380D01*
X122391905Y-88442380D02*
X122677619Y-88442380D01*
X122677619Y-88442380D02*
X122772857Y-88394761D01*
X122772857Y-88394761D02*
X122820476Y-88347142D01*
X121915714Y-87442380D02*
X121582381Y-88442380D01*
X121582381Y-88442380D02*
X121249048Y-87442380D01*
D10*
X127635714Y-77281714D02*
X128550000Y-77281714D01*
D11*
X132811904Y-108832380D02*
X132811904Y-107832380D01*
X132811904Y-107832380D02*
X132478571Y-108546666D01*
X132478571Y-108546666D02*
X132145238Y-107832380D01*
X132145238Y-107832380D02*
X132145238Y-108832380D01*
X131478571Y-107832380D02*
X131288095Y-107832380D01*
X131288095Y-107832380D02*
X131192857Y-107880000D01*
X131192857Y-107880000D02*
X131097619Y-107975238D01*
X131097619Y-107975238D02*
X131050000Y-108165714D01*
X131050000Y-108165714D02*
X131050000Y-108499047D01*
X131050000Y-108499047D02*
X131097619Y-108689523D01*
X131097619Y-108689523D02*
X131192857Y-108784761D01*
X131192857Y-108784761D02*
X131288095Y-108832380D01*
X131288095Y-108832380D02*
X131478571Y-108832380D01*
X131478571Y-108832380D02*
X131573809Y-108784761D01*
X131573809Y-108784761D02*
X131669047Y-108689523D01*
X131669047Y-108689523D02*
X131716666Y-108499047D01*
X131716666Y-108499047D02*
X131716666Y-108165714D01*
X131716666Y-108165714D02*
X131669047Y-107975238D01*
X131669047Y-107975238D02*
X131573809Y-107880000D01*
X131573809Y-107880000D02*
X131478571Y-107832380D01*
X130764285Y-107832380D02*
X130192857Y-107832380D01*
X130478571Y-108832380D02*
X130478571Y-107832380D01*
X129669047Y-107832380D02*
X129478571Y-107832380D01*
X129478571Y-107832380D02*
X129383333Y-107880000D01*
X129383333Y-107880000D02*
X129288095Y-107975238D01*
X129288095Y-107975238D02*
X129240476Y-108165714D01*
X129240476Y-108165714D02*
X129240476Y-108499047D01*
X129240476Y-108499047D02*
X129288095Y-108689523D01*
X129288095Y-108689523D02*
X129383333Y-108784761D01*
X129383333Y-108784761D02*
X129478571Y-108832380D01*
X129478571Y-108832380D02*
X129669047Y-108832380D01*
X129669047Y-108832380D02*
X129764285Y-108784761D01*
X129764285Y-108784761D02*
X129859523Y-108689523D01*
X129859523Y-108689523D02*
X129907142Y-108499047D01*
X129907142Y-108499047D02*
X129907142Y-108165714D01*
X129907142Y-108165714D02*
X129859523Y-107975238D01*
X129859523Y-107975238D02*
X129764285Y-107880000D01*
X129764285Y-107880000D02*
X129669047Y-107832380D01*
X128240476Y-108832380D02*
X128573809Y-108356190D01*
X128811904Y-108832380D02*
X128811904Y-107832380D01*
X128811904Y-107832380D02*
X128430952Y-107832380D01*
X128430952Y-107832380D02*
X128335714Y-107880000D01*
X128335714Y-107880000D02*
X128288095Y-107927619D01*
X128288095Y-107927619D02*
X128240476Y-108022857D01*
X128240476Y-108022857D02*
X128240476Y-108165714D01*
X128240476Y-108165714D02*
X128288095Y-108260952D01*
X128288095Y-108260952D02*
X128335714Y-108308571D01*
X128335714Y-108308571D02*
X128430952Y-108356190D01*
X128430952Y-108356190D02*
X128811904Y-108356190D01*
D10*
X132635714Y-77281714D02*
X133550000Y-77281714D01*
X133092857Y-77738857D02*
X133092857Y-76824571D01*
D11*
X142482380Y-93958095D02*
X141482380Y-93958095D01*
X141482380Y-93958095D02*
X141482380Y-94196190D01*
X141482380Y-94196190D02*
X141530000Y-94339047D01*
X141530000Y-94339047D02*
X141625238Y-94434285D01*
X141625238Y-94434285D02*
X141720476Y-94481904D01*
X141720476Y-94481904D02*
X141910952Y-94529523D01*
X141910952Y-94529523D02*
X142053809Y-94529523D01*
X142053809Y-94529523D02*
X142244285Y-94481904D01*
X142244285Y-94481904D02*
X142339523Y-94434285D01*
X142339523Y-94434285D02*
X142434761Y-94339047D01*
X142434761Y-94339047D02*
X142482380Y-94196190D01*
X142482380Y-94196190D02*
X142482380Y-93958095D01*
X142482380Y-95529523D02*
X142006190Y-95196190D01*
X142482380Y-94958095D02*
X141482380Y-94958095D01*
X141482380Y-94958095D02*
X141482380Y-95339047D01*
X141482380Y-95339047D02*
X141530000Y-95434285D01*
X141530000Y-95434285D02*
X141577619Y-95481904D01*
X141577619Y-95481904D02*
X141672857Y-95529523D01*
X141672857Y-95529523D02*
X141815714Y-95529523D01*
X141815714Y-95529523D02*
X141910952Y-95481904D01*
X141910952Y-95481904D02*
X141958571Y-95434285D01*
X141958571Y-95434285D02*
X142006190Y-95339047D01*
X142006190Y-95339047D02*
X142006190Y-94958095D01*
X141482380Y-95815238D02*
X142482380Y-96148571D01*
X142482380Y-96148571D02*
X141482380Y-96481904D01*
X141910952Y-96958095D02*
X141863333Y-96862857D01*
X141863333Y-96862857D02*
X141815714Y-96815238D01*
X141815714Y-96815238D02*
X141720476Y-96767619D01*
X141720476Y-96767619D02*
X141672857Y-96767619D01*
X141672857Y-96767619D02*
X141577619Y-96815238D01*
X141577619Y-96815238D02*
X141530000Y-96862857D01*
X141530000Y-96862857D02*
X141482380Y-96958095D01*
X141482380Y-96958095D02*
X141482380Y-97148571D01*
X141482380Y-97148571D02*
X141530000Y-97243809D01*
X141530000Y-97243809D02*
X141577619Y-97291428D01*
X141577619Y-97291428D02*
X141672857Y-97339047D01*
X141672857Y-97339047D02*
X141720476Y-97339047D01*
X141720476Y-97339047D02*
X141815714Y-97291428D01*
X141815714Y-97291428D02*
X141863333Y-97243809D01*
X141863333Y-97243809D02*
X141910952Y-97148571D01*
X141910952Y-97148571D02*
X141910952Y-96958095D01*
X141910952Y-96958095D02*
X141958571Y-96862857D01*
X141958571Y-96862857D02*
X142006190Y-96815238D01*
X142006190Y-96815238D02*
X142101428Y-96767619D01*
X142101428Y-96767619D02*
X142291904Y-96767619D01*
X142291904Y-96767619D02*
X142387142Y-96815238D01*
X142387142Y-96815238D02*
X142434761Y-96862857D01*
X142434761Y-96862857D02*
X142482380Y-96958095D01*
X142482380Y-96958095D02*
X142482380Y-97148571D01*
X142482380Y-97148571D02*
X142434761Y-97243809D01*
X142434761Y-97243809D02*
X142387142Y-97291428D01*
X142387142Y-97291428D02*
X142291904Y-97339047D01*
X142291904Y-97339047D02*
X142101428Y-97339047D01*
X142101428Y-97339047D02*
X142006190Y-97291428D01*
X142006190Y-97291428D02*
X141958571Y-97243809D01*
X141958571Y-97243809D02*
X141910952Y-97148571D01*
X141910952Y-97910476D02*
X141863333Y-97815238D01*
X141863333Y-97815238D02*
X141815714Y-97767619D01*
X141815714Y-97767619D02*
X141720476Y-97720000D01*
X141720476Y-97720000D02*
X141672857Y-97720000D01*
X141672857Y-97720000D02*
X141577619Y-97767619D01*
X141577619Y-97767619D02*
X141530000Y-97815238D01*
X141530000Y-97815238D02*
X141482380Y-97910476D01*
X141482380Y-97910476D02*
X141482380Y-98100952D01*
X141482380Y-98100952D02*
X141530000Y-98196190D01*
X141530000Y-98196190D02*
X141577619Y-98243809D01*
X141577619Y-98243809D02*
X141672857Y-98291428D01*
X141672857Y-98291428D02*
X141720476Y-98291428D01*
X141720476Y-98291428D02*
X141815714Y-98243809D01*
X141815714Y-98243809D02*
X141863333Y-98196190D01*
X141863333Y-98196190D02*
X141910952Y-98100952D01*
X141910952Y-98100952D02*
X141910952Y-97910476D01*
X141910952Y-97910476D02*
X141958571Y-97815238D01*
X141958571Y-97815238D02*
X142006190Y-97767619D01*
X142006190Y-97767619D02*
X142101428Y-97720000D01*
X142101428Y-97720000D02*
X142291904Y-97720000D01*
X142291904Y-97720000D02*
X142387142Y-97767619D01*
X142387142Y-97767619D02*
X142434761Y-97815238D01*
X142434761Y-97815238D02*
X142482380Y-97910476D01*
X142482380Y-97910476D02*
X142482380Y-98100952D01*
X142482380Y-98100952D02*
X142434761Y-98196190D01*
X142434761Y-98196190D02*
X142387142Y-98243809D01*
X142387142Y-98243809D02*
X142291904Y-98291428D01*
X142291904Y-98291428D02*
X142101428Y-98291428D01*
X142101428Y-98291428D02*
X142006190Y-98243809D01*
X142006190Y-98243809D02*
X141958571Y-98196190D01*
X141958571Y-98196190D02*
X141910952Y-98100952D01*
X141482380Y-98624762D02*
X141482380Y-99291428D01*
X141482380Y-99291428D02*
X142482380Y-98862857D01*
X141482380Y-99862857D02*
X141482380Y-99958095D01*
X141482380Y-99958095D02*
X141530000Y-100053333D01*
X141530000Y-100053333D02*
X141577619Y-100100952D01*
X141577619Y-100100952D02*
X141672857Y-100148571D01*
X141672857Y-100148571D02*
X141863333Y-100196190D01*
X141863333Y-100196190D02*
X142101428Y-100196190D01*
X142101428Y-100196190D02*
X142291904Y-100148571D01*
X142291904Y-100148571D02*
X142387142Y-100100952D01*
X142387142Y-100100952D02*
X142434761Y-100053333D01*
X142434761Y-100053333D02*
X142482380Y-99958095D01*
X142482380Y-99958095D02*
X142482380Y-99862857D01*
X142482380Y-99862857D02*
X142434761Y-99767619D01*
X142434761Y-99767619D02*
X142387142Y-99720000D01*
X142387142Y-99720000D02*
X142291904Y-99672381D01*
X142291904Y-99672381D02*
X142101428Y-99624762D01*
X142101428Y-99624762D02*
X141863333Y-99624762D01*
X141863333Y-99624762D02*
X141672857Y-99672381D01*
X141672857Y-99672381D02*
X141577619Y-99720000D01*
X141577619Y-99720000D02*
X141530000Y-99767619D01*
X141530000Y-99767619D02*
X141482380Y-99862857D01*
X141482380Y-101081905D02*
X142482380Y-101415238D01*
X142482380Y-101415238D02*
X141482380Y-101748571D01*
X142482380Y-102605714D02*
X142482380Y-102034286D01*
X142482380Y-102320000D02*
X141482380Y-102320000D01*
X141482380Y-102320000D02*
X141625238Y-102224762D01*
X141625238Y-102224762D02*
X141720476Y-102129524D01*
X141720476Y-102129524D02*
X141768095Y-102034286D01*
X142387142Y-103034286D02*
X142434761Y-103081905D01*
X142434761Y-103081905D02*
X142482380Y-103034286D01*
X142482380Y-103034286D02*
X142434761Y-102986667D01*
X142434761Y-102986667D02*
X142387142Y-103034286D01*
X142387142Y-103034286D02*
X142482380Y-103034286D01*
X141482380Y-103700952D02*
X141482380Y-103796190D01*
X141482380Y-103796190D02*
X141530000Y-103891428D01*
X141530000Y-103891428D02*
X141577619Y-103939047D01*
X141577619Y-103939047D02*
X141672857Y-103986666D01*
X141672857Y-103986666D02*
X141863333Y-104034285D01*
X141863333Y-104034285D02*
X142101428Y-104034285D01*
X142101428Y-104034285D02*
X142291904Y-103986666D01*
X142291904Y-103986666D02*
X142387142Y-103939047D01*
X142387142Y-103939047D02*
X142434761Y-103891428D01*
X142434761Y-103891428D02*
X142482380Y-103796190D01*
X142482380Y-103796190D02*
X142482380Y-103700952D01*
X142482380Y-103700952D02*
X142434761Y-103605714D01*
X142434761Y-103605714D02*
X142387142Y-103558095D01*
X142387142Y-103558095D02*
X142291904Y-103510476D01*
X142291904Y-103510476D02*
X142101428Y-103462857D01*
X142101428Y-103462857D02*
X141863333Y-103462857D01*
X141863333Y-103462857D02*
X141672857Y-103510476D01*
X141672857Y-103510476D02*
X141577619Y-103558095D01*
X141577619Y-103558095D02*
X141530000Y-103605714D01*
X141530000Y-103605714D02*
X141482380Y-103700952D01*
X126738095Y-99101428D02*
X127500000Y-99101428D01*
X127119047Y-99482380D02*
X127119047Y-98720476D01*
D10*
X133471428Y-113653142D02*
X133414285Y-113596000D01*
X133414285Y-113596000D02*
X133300000Y-113538857D01*
X133300000Y-113538857D02*
X133014285Y-113538857D01*
X133014285Y-113538857D02*
X132900000Y-113596000D01*
X132900000Y-113596000D02*
X132842857Y-113653142D01*
X132842857Y-113653142D02*
X132785714Y-113767428D01*
X132785714Y-113767428D02*
X132785714Y-113881714D01*
X132785714Y-113881714D02*
X132842857Y-114053142D01*
X132842857Y-114053142D02*
X133528571Y-114738857D01*
X133528571Y-114738857D02*
X132785714Y-114738857D01*
D11*
X139861904Y-91042380D02*
X139861904Y-90042380D01*
X139385714Y-91042380D02*
X139385714Y-90042380D01*
X139385714Y-90042380D02*
X138814286Y-91042380D01*
X138814286Y-91042380D02*
X138814286Y-90042380D01*
X138385714Y-90137619D02*
X138338095Y-90090000D01*
X138338095Y-90090000D02*
X138242857Y-90042380D01*
X138242857Y-90042380D02*
X138004762Y-90042380D01*
X138004762Y-90042380D02*
X137909524Y-90090000D01*
X137909524Y-90090000D02*
X137861905Y-90137619D01*
X137861905Y-90137619D02*
X137814286Y-90232857D01*
X137814286Y-90232857D02*
X137814286Y-90328095D01*
X137814286Y-90328095D02*
X137861905Y-90470952D01*
X137861905Y-90470952D02*
X138433333Y-91042380D01*
X138433333Y-91042380D02*
X137814286Y-91042380D01*
X132861904Y-83132380D02*
X132861904Y-82132380D01*
X132861904Y-82132380D02*
X132480952Y-82132380D01*
X132480952Y-82132380D02*
X132385714Y-82180000D01*
X132385714Y-82180000D02*
X132338095Y-82227619D01*
X132338095Y-82227619D02*
X132290476Y-82322857D01*
X132290476Y-82322857D02*
X132290476Y-82465714D01*
X132290476Y-82465714D02*
X132338095Y-82560952D01*
X132338095Y-82560952D02*
X132385714Y-82608571D01*
X132385714Y-82608571D02*
X132480952Y-82656190D01*
X132480952Y-82656190D02*
X132861904Y-82656190D01*
X131671428Y-82132380D02*
X131480952Y-82132380D01*
X131480952Y-82132380D02*
X131385714Y-82180000D01*
X131385714Y-82180000D02*
X131290476Y-82275238D01*
X131290476Y-82275238D02*
X131242857Y-82465714D01*
X131242857Y-82465714D02*
X131242857Y-82799047D01*
X131242857Y-82799047D02*
X131290476Y-82989523D01*
X131290476Y-82989523D02*
X131385714Y-83084761D01*
X131385714Y-83084761D02*
X131480952Y-83132380D01*
X131480952Y-83132380D02*
X131671428Y-83132380D01*
X131671428Y-83132380D02*
X131766666Y-83084761D01*
X131766666Y-83084761D02*
X131861904Y-82989523D01*
X131861904Y-82989523D02*
X131909523Y-82799047D01*
X131909523Y-82799047D02*
X131909523Y-82465714D01*
X131909523Y-82465714D02*
X131861904Y-82275238D01*
X131861904Y-82275238D02*
X131766666Y-82180000D01*
X131766666Y-82180000D02*
X131671428Y-82132380D01*
X130909523Y-82132380D02*
X130671428Y-83132380D01*
X130671428Y-83132380D02*
X130480952Y-82418095D01*
X130480952Y-82418095D02*
X130290476Y-83132380D01*
X130290476Y-83132380D02*
X130052381Y-82132380D01*
X129671428Y-82608571D02*
X129338095Y-82608571D01*
X129195238Y-83132380D02*
X129671428Y-83132380D01*
X129671428Y-83132380D02*
X129671428Y-82132380D01*
X129671428Y-82132380D02*
X129195238Y-82132380D01*
X128195238Y-83132380D02*
X128528571Y-82656190D01*
X128766666Y-83132380D02*
X128766666Y-82132380D01*
X128766666Y-82132380D02*
X128385714Y-82132380D01*
X128385714Y-82132380D02*
X128290476Y-82180000D01*
X128290476Y-82180000D02*
X128242857Y-82227619D01*
X128242857Y-82227619D02*
X128195238Y-82322857D01*
X128195238Y-82322857D02*
X128195238Y-82465714D01*
X128195238Y-82465714D02*
X128242857Y-82560952D01*
X128242857Y-82560952D02*
X128290476Y-82608571D01*
X128290476Y-82608571D02*
X128385714Y-82656190D01*
X128385714Y-82656190D02*
X128766666Y-82656190D01*
X139861904Y-88482380D02*
X139861904Y-87482380D01*
X139385714Y-88482380D02*
X139385714Y-87482380D01*
X139385714Y-87482380D02*
X138814286Y-88482380D01*
X138814286Y-88482380D02*
X138814286Y-87482380D01*
X137814286Y-88482380D02*
X138385714Y-88482380D01*
X138100000Y-88482380D02*
X138100000Y-87482380D01*
X138100000Y-87482380D02*
X138195238Y-87625238D01*
X138195238Y-87625238D02*
X138290476Y-87720476D01*
X138290476Y-87720476D02*
X138385714Y-87768095D01*
X123368095Y-90090000D02*
X123463333Y-90042380D01*
X123463333Y-90042380D02*
X123606190Y-90042380D01*
X123606190Y-90042380D02*
X123749047Y-90090000D01*
X123749047Y-90090000D02*
X123844285Y-90185238D01*
X123844285Y-90185238D02*
X123891904Y-90280476D01*
X123891904Y-90280476D02*
X123939523Y-90470952D01*
X123939523Y-90470952D02*
X123939523Y-90613809D01*
X123939523Y-90613809D02*
X123891904Y-90804285D01*
X123891904Y-90804285D02*
X123844285Y-90899523D01*
X123844285Y-90899523D02*
X123749047Y-90994761D01*
X123749047Y-90994761D02*
X123606190Y-91042380D01*
X123606190Y-91042380D02*
X123510952Y-91042380D01*
X123510952Y-91042380D02*
X123368095Y-90994761D01*
X123368095Y-90994761D02*
X123320476Y-90947142D01*
X123320476Y-90947142D02*
X123320476Y-90613809D01*
X123320476Y-90613809D02*
X123510952Y-90613809D01*
X122891904Y-91042380D02*
X122891904Y-90042380D01*
X122891904Y-90042380D02*
X122320476Y-91042380D01*
X122320476Y-91042380D02*
X122320476Y-90042380D01*
X121844285Y-91042380D02*
X121844285Y-90042380D01*
X121844285Y-90042380D02*
X121606190Y-90042380D01*
X121606190Y-90042380D02*
X121463333Y-90090000D01*
X121463333Y-90090000D02*
X121368095Y-90185238D01*
X121368095Y-90185238D02*
X121320476Y-90280476D01*
X121320476Y-90280476D02*
X121272857Y-90470952D01*
X121272857Y-90470952D02*
X121272857Y-90613809D01*
X121272857Y-90613809D02*
X121320476Y-90804285D01*
X121320476Y-90804285D02*
X121368095Y-90899523D01*
X121368095Y-90899523D02*
X121463333Y-90994761D01*
X121463333Y-90994761D02*
X121606190Y-91042380D01*
X121606190Y-91042380D02*
X121844285Y-91042380D01*
D12*
X129273571Y-85642857D02*
X130773571Y-86142857D01*
X130773571Y-86142857D02*
X129273571Y-86642857D01*
X130702142Y-87071428D02*
X130773571Y-87214285D01*
X130773571Y-87214285D02*
X130773571Y-87499999D01*
X130773571Y-87499999D02*
X130702142Y-87642856D01*
X130702142Y-87642856D02*
X130559285Y-87714285D01*
X130559285Y-87714285D02*
X130487857Y-87714285D01*
X130487857Y-87714285D02*
X130345000Y-87642856D01*
X130345000Y-87642856D02*
X130273571Y-87499999D01*
X130273571Y-87499999D02*
X130273571Y-87285714D01*
X130273571Y-87285714D02*
X130202142Y-87142856D01*
X130202142Y-87142856D02*
X130059285Y-87071428D01*
X130059285Y-87071428D02*
X129987857Y-87071428D01*
X129987857Y-87071428D02*
X129845000Y-87142856D01*
X129845000Y-87142856D02*
X129773571Y-87285714D01*
X129773571Y-87285714D02*
X129773571Y-87499999D01*
X129773571Y-87499999D02*
X129845000Y-87642856D01*
X130773571Y-89214285D02*
X130059285Y-88714285D01*
X130773571Y-88357142D02*
X129273571Y-88357142D01*
X129273571Y-88357142D02*
X129273571Y-88928571D01*
X129273571Y-88928571D02*
X129345000Y-89071428D01*
X129345000Y-89071428D02*
X129416428Y-89142857D01*
X129416428Y-89142857D02*
X129559285Y-89214285D01*
X129559285Y-89214285D02*
X129773571Y-89214285D01*
X129773571Y-89214285D02*
X129916428Y-89142857D01*
X129916428Y-89142857D02*
X129987857Y-89071428D01*
X129987857Y-89071428D02*
X130059285Y-88928571D01*
X130059285Y-88928571D02*
X130059285Y-88357142D01*
X130702142Y-90428571D02*
X130773571Y-90285714D01*
X130773571Y-90285714D02*
X130773571Y-90000000D01*
X130773571Y-90000000D02*
X130702142Y-89857142D01*
X130702142Y-89857142D02*
X130559285Y-89785714D01*
X130559285Y-89785714D02*
X129987857Y-89785714D01*
X129987857Y-89785714D02*
X129845000Y-89857142D01*
X129845000Y-89857142D02*
X129773571Y-90000000D01*
X129773571Y-90000000D02*
X129773571Y-90285714D01*
X129773571Y-90285714D02*
X129845000Y-90428571D01*
X129845000Y-90428571D02*
X129987857Y-90500000D01*
X129987857Y-90500000D02*
X130130714Y-90500000D01*
X130130714Y-90500000D02*
X130273571Y-89785714D01*
X130773571Y-91785714D02*
X129987857Y-91785714D01*
X129987857Y-91785714D02*
X129845000Y-91714285D01*
X129845000Y-91714285D02*
X129773571Y-91571428D01*
X129773571Y-91571428D02*
X129773571Y-91285714D01*
X129773571Y-91285714D02*
X129845000Y-91142856D01*
X130702142Y-91785714D02*
X130773571Y-91642856D01*
X130773571Y-91642856D02*
X130773571Y-91285714D01*
X130773571Y-91285714D02*
X130702142Y-91142856D01*
X130702142Y-91142856D02*
X130559285Y-91071428D01*
X130559285Y-91071428D02*
X130416428Y-91071428D01*
X130416428Y-91071428D02*
X130273571Y-91142856D01*
X130273571Y-91142856D02*
X130202142Y-91285714D01*
X130202142Y-91285714D02*
X130202142Y-91642856D01*
X130202142Y-91642856D02*
X130130714Y-91785714D01*
X130773571Y-92714285D02*
X130702142Y-92571428D01*
X130702142Y-92571428D02*
X130559285Y-92499999D01*
X130559285Y-92499999D02*
X129273571Y-92499999D01*
X130773571Y-93285713D02*
X129773571Y-93285713D01*
X129273571Y-93285713D02*
X129345000Y-93214285D01*
X129345000Y-93214285D02*
X129416428Y-93285713D01*
X129416428Y-93285713D02*
X129345000Y-93357142D01*
X129345000Y-93357142D02*
X129273571Y-93285713D01*
X129273571Y-93285713D02*
X129416428Y-93285713D01*
X129773571Y-93785714D02*
X129773571Y-94357142D01*
X129273571Y-93999999D02*
X130559285Y-93999999D01*
X130559285Y-93999999D02*
X130702142Y-94071428D01*
X130702142Y-94071428D02*
X130773571Y-94214285D01*
X130773571Y-94214285D02*
X130773571Y-94357142D01*
X129773571Y-94714285D02*
X130773571Y-95071428D01*
X129773571Y-95428571D02*
X130773571Y-95071428D01*
X130773571Y-95071428D02*
X131130714Y-94928571D01*
X131130714Y-94928571D02*
X131202142Y-94857142D01*
X131202142Y-94857142D02*
X131273571Y-94714285D01*
X130773571Y-97757142D02*
X130059285Y-97257142D01*
X130773571Y-96899999D02*
X129273571Y-96899999D01*
X129273571Y-96899999D02*
X129273571Y-97471428D01*
X129273571Y-97471428D02*
X129345000Y-97614285D01*
X129345000Y-97614285D02*
X129416428Y-97685714D01*
X129416428Y-97685714D02*
X129559285Y-97757142D01*
X129559285Y-97757142D02*
X129773571Y-97757142D01*
X129773571Y-97757142D02*
X129916428Y-97685714D01*
X129916428Y-97685714D02*
X129987857Y-97614285D01*
X129987857Y-97614285D02*
X130059285Y-97471428D01*
X130059285Y-97471428D02*
X130059285Y-96899999D01*
X130773571Y-98614285D02*
X130702142Y-98471428D01*
X130702142Y-98471428D02*
X130630714Y-98399999D01*
X130630714Y-98399999D02*
X130487857Y-98328571D01*
X130487857Y-98328571D02*
X130059285Y-98328571D01*
X130059285Y-98328571D02*
X129916428Y-98399999D01*
X129916428Y-98399999D02*
X129845000Y-98471428D01*
X129845000Y-98471428D02*
X129773571Y-98614285D01*
X129773571Y-98614285D02*
X129773571Y-98828571D01*
X129773571Y-98828571D02*
X129845000Y-98971428D01*
X129845000Y-98971428D02*
X129916428Y-99042857D01*
X129916428Y-99042857D02*
X130059285Y-99114285D01*
X130059285Y-99114285D02*
X130487857Y-99114285D01*
X130487857Y-99114285D02*
X130630714Y-99042857D01*
X130630714Y-99042857D02*
X130702142Y-98971428D01*
X130702142Y-98971428D02*
X130773571Y-98828571D01*
X130773571Y-98828571D02*
X130773571Y-98614285D01*
X130773571Y-99757142D02*
X129273571Y-99757142D01*
X129845000Y-99757142D02*
X129773571Y-99900000D01*
X129773571Y-99900000D02*
X129773571Y-100185714D01*
X129773571Y-100185714D02*
X129845000Y-100328571D01*
X129845000Y-100328571D02*
X129916428Y-100400000D01*
X129916428Y-100400000D02*
X130059285Y-100471428D01*
X130059285Y-100471428D02*
X130487857Y-100471428D01*
X130487857Y-100471428D02*
X130630714Y-100400000D01*
X130630714Y-100400000D02*
X130702142Y-100328571D01*
X130702142Y-100328571D02*
X130773571Y-100185714D01*
X130773571Y-100185714D02*
X130773571Y-99900000D01*
X130773571Y-99900000D02*
X130702142Y-99757142D01*
X130773571Y-101328571D02*
X130702142Y-101185714D01*
X130702142Y-101185714D02*
X130630714Y-101114285D01*
X130630714Y-101114285D02*
X130487857Y-101042857D01*
X130487857Y-101042857D02*
X130059285Y-101042857D01*
X130059285Y-101042857D02*
X129916428Y-101114285D01*
X129916428Y-101114285D02*
X129845000Y-101185714D01*
X129845000Y-101185714D02*
X129773571Y-101328571D01*
X129773571Y-101328571D02*
X129773571Y-101542857D01*
X129773571Y-101542857D02*
X129845000Y-101685714D01*
X129845000Y-101685714D02*
X129916428Y-101757143D01*
X129916428Y-101757143D02*
X130059285Y-101828571D01*
X130059285Y-101828571D02*
X130487857Y-101828571D01*
X130487857Y-101828571D02*
X130630714Y-101757143D01*
X130630714Y-101757143D02*
X130702142Y-101685714D01*
X130702142Y-101685714D02*
X130773571Y-101542857D01*
X130773571Y-101542857D02*
X130773571Y-101328571D01*
X129773571Y-102257143D02*
X129773571Y-102828571D01*
X129273571Y-102471428D02*
X130559285Y-102471428D01*
X130559285Y-102471428D02*
X130702142Y-102542857D01*
X130702142Y-102542857D02*
X130773571Y-102685714D01*
X130773571Y-102685714D02*
X130773571Y-102828571D01*
X130773571Y-103328571D02*
X129773571Y-103328571D01*
X129273571Y-103328571D02*
X129345000Y-103257143D01*
X129345000Y-103257143D02*
X129416428Y-103328571D01*
X129416428Y-103328571D02*
X129345000Y-103400000D01*
X129345000Y-103400000D02*
X129273571Y-103328571D01*
X129273571Y-103328571D02*
X129416428Y-103328571D01*
X130702142Y-104685715D02*
X130773571Y-104542857D01*
X130773571Y-104542857D02*
X130773571Y-104257143D01*
X130773571Y-104257143D02*
X130702142Y-104114286D01*
X130702142Y-104114286D02*
X130630714Y-104042857D01*
X130630714Y-104042857D02*
X130487857Y-103971429D01*
X130487857Y-103971429D02*
X130059285Y-103971429D01*
X130059285Y-103971429D02*
X129916428Y-104042857D01*
X129916428Y-104042857D02*
X129845000Y-104114286D01*
X129845000Y-104114286D02*
X129773571Y-104257143D01*
X129773571Y-104257143D02*
X129773571Y-104542857D01*
X129773571Y-104542857D02*
X129845000Y-104685715D01*
X130702142Y-105257143D02*
X130773571Y-105400000D01*
X130773571Y-105400000D02*
X130773571Y-105685714D01*
X130773571Y-105685714D02*
X130702142Y-105828571D01*
X130702142Y-105828571D02*
X130559285Y-105900000D01*
X130559285Y-105900000D02*
X130487857Y-105900000D01*
X130487857Y-105900000D02*
X130345000Y-105828571D01*
X130345000Y-105828571D02*
X130273571Y-105685714D01*
X130273571Y-105685714D02*
X130273571Y-105471429D01*
X130273571Y-105471429D02*
X130202142Y-105328571D01*
X130202142Y-105328571D02*
X130059285Y-105257143D01*
X130059285Y-105257143D02*
X129987857Y-105257143D01*
X129987857Y-105257143D02*
X129845000Y-105328571D01*
X129845000Y-105328571D02*
X129773571Y-105471429D01*
X129773571Y-105471429D02*
X129773571Y-105685714D01*
X129773571Y-105685714D02*
X129845000Y-105828571D01*
M02*
